<svg width="158" height="13" viewBox="0 0 158 13" fill="none" xmlns="http://www.w3.org/2000/svg">
<path d="M1.02962 5.81836L0.0297362 5.80338L-0.000215054 7.80316L0.999673 7.81813L1.01465 6.81824L1.02962 5.81836ZM79.1632 9.84964L78.9583 8.87087L79.1632 9.84964ZM157.015 5.85528L147.062 -9.53674e-05L146.968 11.5465L157.015 5.85528ZM1.01465 6.81824L0.999673 7.81813C2.34556 7.83829 3.65579 7.86393 4.93187 7.89461L4.95591 6.89489L4.97994 5.89518C3.69774 5.86436 2.38147 5.8386 1.02962 5.81836L1.01465 6.81824ZM12.8131 7.16191L12.7687 8.16092C15.5481 8.28457 18.1425 8.43276 20.5739 8.59909L20.6421 7.60142L20.7104 6.60375C18.263 6.43633 15.6527 6.28724 12.8576 6.1629L12.8131 7.16191ZM28.4881 8.24385L28.3927 9.23929C31.2171 9.50996 33.7905 9.80045 36.1682 10.095L36.2911 9.10254L36.414 8.11012C34.0205 7.81366 31.4286 7.52106 28.5835 7.24841L28.4881 8.24385ZM44.0676 10.148L43.9274 11.1381C46.7244 11.534 49.2795 11.9029 51.7273 12.1975L51.8468 11.2047L51.9664 10.2119C49.5445 9.92035 47.0151 9.55524 44.2077 9.15784L44.0676 10.148ZM59.6709 11.8441L59.6382 12.8435C62.1672 12.9262 64.7629 12.8729 67.5992 12.6328L67.5149 11.6364L67.4305 10.6399C64.6744 10.8732 62.1569 10.9247 59.7036 10.8446L59.6709 11.8441ZM75.2904 10.599L75.4641 11.5838C76.71 11.3641 78.0084 11.1132 79.3682 10.8284L79.1632 9.84964L78.9583 8.87087C77.6177 9.1516 76.3402 9.39849 75.1168 9.61421L75.2904 10.599ZM79.1632 9.84964L79.3682 10.8284C80.682 10.5533 81.9652 10.2899 83.2189 10.0379L83.0218 9.05755L82.8248 8.07716C81.5657 8.33025 80.2772 8.59468 78.9583 8.87087L79.1632 9.84964ZM90.7314 7.58114L90.9098 8.5651C93.6295 8.07202 96.1921 7.63915 98.6124 7.26046L98.4578 6.27248L98.3033 5.2845C95.866 5.66584 93.2875 6.10143 90.553 6.59718L90.7314 7.58114ZM106.205 5.17907L106.328 6.17142C109.123 5.82361 111.7 5.55844 114.092 5.36206L114.01 4.36541L113.929 3.36876C111.507 3.56758 108.902 3.8357 106.081 4.18672L106.205 5.17907ZM121.831 3.93152L121.858 4.93117C124.699 4.85582 127.255 4.88559 129.623 4.98167L129.663 3.98249L129.704 2.98331C127.293 2.88551 124.693 2.85529 121.805 2.93188L121.831 3.93152ZM137.476 4.5393L137.38 5.5347C139.983 5.78536 142.587 6.08164 145.178 6.32237L145.27 5.32666L145.363 4.33095C142.727 4.08608 140.27 3.80374 137.572 3.54391L137.476 4.5393Z" fill="#0043A7"/>
</svg>
