<svg width="158" height="13" viewBox="0 0 158 13" fill="none" xmlns="http://www.w3.org/2000/svg">
<path d="M0.628487 4.56526L-7.06911e-05 5.34302L1.55545 6.60013L2.18401 5.82237L1.40625 5.19381L0.628487 4.56526ZM60.1734 6.57978L59.85 5.63351V5.63351L60.1734 6.57978ZM157.406 6.95639L147.495 1.03258L147.32 12.5783L157.406 6.95639ZM1.40625 5.19381L2.18401 5.82237C2.64145 5.25634 3.04141 4.96101 3.39336 4.81242C3.73425 4.6685 4.10512 4.63029 4.56843 4.70782L4.73347 3.72154L4.89851 2.73525C4.13261 2.60709 3.3672 2.65252 2.61545 2.9699C1.87476 3.28262 1.22571 3.82627 0.628487 4.56526L1.40625 5.19381ZM11.6329 7.07256L11.1659 7.95684C13.133 8.99556 15.4985 10.1071 18.4001 11.0212L18.7005 10.0674L19.001 9.11357C16.2491 8.24666 13.9982 7.19074 12.0998 6.18828L11.6329 7.07256ZM26.2019 11.6616L26.0836 12.6546C28.4387 12.9353 31.0352 13.0612 33.9069 12.9714L33.8756 11.9719L33.8444 10.9724C31.0693 11.0591 28.5729 10.9371 26.3202 10.6687L26.2019 11.6616ZM41.541 11.2722L41.6861 12.2616C44.0699 11.9122 46.6065 11.4284 49.308 10.7885L49.0775 9.81541L48.847 8.84234C46.1987 9.46964 43.7192 9.94226 41.396 10.2828L41.541 11.2722ZM56.5005 7.77748L56.7966 8.73263C58.0014 8.35915 59.2345 7.95742 60.4968 7.52605L60.1734 6.57978L59.85 5.63351C58.6053 6.05887 57.3904 6.45465 56.2044 6.82232L56.5005 7.77748ZM60.1734 6.57978L60.4968 7.52605C61.8008 7.08039 63.089 6.66669 64.3622 6.28321L64.0738 5.3257L63.7854 4.36818C62.4885 4.75879 61.177 5.18 59.85 5.63351L60.1734 6.57978ZM71.9973 3.2712L72.2095 4.24842C74.9241 3.65887 77.5762 3.20192 80.1772 2.85867L80.0463 1.86727L79.9155 0.875862C77.2608 1.22619 74.5544 1.69253 71.7851 2.29398L71.9973 3.2712ZM88.1978 1.13126L88.2474 2.13003C90.989 1.99386 93.6856 1.96986 96.3524 2.03374L96.3764 1.03402L96.4003 0.0343092C93.6891 -0.030625 90.9433 -0.00633574 88.1482 0.132488L88.1978 1.13126ZM104.543 1.48309L104.461 2.47965C107.169 2.70505 109.862 2.99763 112.557 3.33062L112.68 2.33817L112.802 1.34572C110.088 1.01038 107.368 0.714687 104.626 0.486537L104.543 1.48309ZM120.789 3.43111L120.648 4.42113C123.322 4.80189 126.024 5.1969 128.749 5.57722L128.887 4.58681L129.026 3.59641C126.303 3.21641 123.616 2.82346 120.93 2.44109L120.789 3.43111ZM137 5.64033L136.883 6.63353C139.562 6.94745 142.285 7.22559 145.064 7.44482L145.143 6.44791L145.222 5.45101C142.472 5.23415 139.775 4.95872 137.116 4.64712L137 5.64033Z" fill="#0043A7"/>
</svg>
