<svg width="158" height="15" viewBox="0 0 158 15" fill="none" xmlns="http://www.w3.org/2000/svg">
<path d="M0.999738 3.70778L-0.00018394 3.72025L0.0247535 5.72009L1.02468 5.70762L1.01221 4.7077L0.999738 3.70778ZM79.723 7.85187L79.9263 6.87275L79.723 7.85187ZM157.012 8.48414L146.785 3.12297L147.256 14.6604L157.012 8.48414ZM1.01221 4.7077L1.02468 5.70762C2.49701 5.68926 3.83587 5.54125 5.14053 5.31532L4.96989 4.32998L4.79925 3.34465C3.58052 3.5557 2.3487 3.69096 0.999738 3.70778L1.01221 4.7077ZM12.715 2.55109L12.9294 3.52784C15.0775 3.05637 17.5585 2.6128 20.659 2.32619L20.567 1.33044L20.4749 0.334682C17.2778 0.630216 14.714 1.08853 12.5006 1.57434L12.715 2.55109ZM28.5093 0.999812L28.5069 1.99981C30.8543 2.00545 33.4678 2.09149 36.3985 2.28192L36.4634 1.28402L36.5282 0.286128C33.5597 0.0932416 30.9044 0.00556552 28.5118 -0.000184655L28.5093 0.999812ZM44.3769 1.97922L44.2692 2.9734C46.7082 3.23766 49.3229 3.56265 52.1307 3.95655L52.2697 2.96624L52.4086 1.97594C49.5815 1.57934 46.946 1.25172 44.4846 0.985035L44.3769 1.97922ZM60.1366 4.17045L59.9739 5.15712C62.4561 5.56638 65.0667 6.02255 67.8143 6.52959L67.9958 5.54619L68.1773 4.5628C65.4179 4.05358 62.7947 3.59521 60.2993 3.18377L60.1366 4.17045ZM75.7848 7.04786L75.5881 8.02833C76.872 8.28582 78.1823 8.55327 79.5197 8.83098L79.723 7.85187L79.9263 6.87275C78.5846 6.59414 77.2698 6.32579 75.9814 6.06738L75.7848 7.04786ZM79.723 7.85187L79.5197 8.83098C80.8371 9.10453 82.1234 9.36526 83.3798 9.61364L83.5737 8.63262L83.7676 7.65161C82.5177 7.40451 81.2376 7.14505 79.9263 6.87275L79.723 7.85187ZM91.2548 10.0645L91.0831 11.0496C93.8157 11.5258 96.3871 11.9357 98.8122 12.2858L98.9551 11.2961L99.098 10.3064C96.6935 9.95923 94.1413 9.55239 91.4264 9.07932L91.2548 10.0645ZM106.697 12.2686L106.593 13.2632C109.415 13.5595 112.006 13.7618 114.401 13.8855L114.452 12.8868L114.504 11.8882C112.147 11.7664 109.591 11.567 106.802 11.2741L106.697 12.2686ZM122.256 13.0166L122.278 14.0163C125.206 13.951 127.794 13.7532 130.157 13.4738L130.039 12.4807L129.922 11.4876C127.62 11.7598 125.096 11.953 122.234 12.0168L122.256 13.0166ZM137.736 11.2146L137.934 12.1948C140.572 11.6617 142.983 11.1113 145.557 10.6375L145.376 9.65405L145.195 8.67057C142.606 9.14697 140.105 9.71571 137.538 10.2344L137.736 11.2146Z" fill="#0043A7"/>
</svg>
