<svg width="48" height="47" viewBox="0 0 48 47" fill="none" xmlns="http://www.w3.org/2000/svg">
<path d="M37.8691 44.3809C37.8877 44.3829 37.8978 44.3875 37.9043 44.3916C37.9126 44.3968 37.9225 44.4055 37.9307 44.418C37.9389 44.4306 37.9429 44.4434 37.9443 44.4531C37.9454 44.4607 37.946 44.4716 37.9404 44.4893L37.8633 44.7275L37.7812 44.4922C37.7727 44.4677 37.7744 44.4563 37.7754 44.4512C37.7771 44.442 37.7827 44.4275 37.7949 44.4121C37.8071 44.3967 37.8205 44.3885 37.8291 44.3848C37.8339 44.3827 37.8439 44.3782 37.8691 44.3809ZM26.4033 3.76172C25.8714 5.07615 26.2837 6.60098 27.4355 7.46484L30.4424 9.7207C32.618 11.3523 35.7535 10.2746 36.4668 7.65039C36.512 7.48402 36.5876 7.40078 36.6562 7.35059C36.7365 7.29201 36.8513 7.2498 36.9844 7.24707C37.1173 7.24444 37.233 7.28173 37.3154 7.33691C37.3861 7.38423 37.4646 7.46446 37.5166 7.62891L38.9258 12.085C39.0747 12.5556 39.3129 12.9932 39.627 13.374L45.6748 20.7061C45.7448 20.7911 45.7876 20.8952 45.7979 21.0049L46.2969 26.3721C46.3065 26.4757 46.2865 26.5801 46.2393 26.6729L40.5996 37.7148C40.4906 37.9283 40.256 38.047 40.0195 38.0078L33.8135 36.9795C33.6308 36.9492 33.4756 36.8284 33.4004 36.6592L31.5264 32.4424L31.4326 32.25C30.4527 30.392 27.9061 30.077 26.502 31.6289L21.2529 27.9541C20.0315 27.0991 18.4264 27.0259 17.1318 27.7656L7.4668 33.2881C7.35655 33.3511 7.22777 33.3745 7.10254 33.3535L5.3291 33.0557C5.10798 33.0186 4.93142 32.8507 4.88281 32.6318L1.95996 19.4697C1.90834 19.2366 2.01279 18.9968 2.21875 18.876L9.03906 14.8828C9.45707 14.6381 9.82606 14.3167 10.125 13.9355L15.6543 6.88672C15.7476 6.76808 15.9173 6.74407 16.04 6.83203C18.0173 8.25086 20.804 7.3288 21.5449 5.01074L21.6914 4.55078C21.7584 4.34125 21.9441 4.19205 22.1631 4.1709L26.4033 3.76172Z" stroke="black" stroke-width="3.30253"/>
<path d="M37.8691 44.3809C37.8877 44.3829 37.8978 44.3875 37.9043 44.3916C37.9126 44.3968 37.9225 44.4055 37.9307 44.418C37.9389 44.4306 37.9429 44.4434 37.9443 44.4531C37.9454 44.4607 37.946 44.4716 37.9404 44.4893L37.8633 44.7275L37.7812 44.4922C37.7727 44.4677 37.7744 44.4563 37.7754 44.4512C37.7771 44.442 37.7827 44.4275 37.7949 44.4121C37.8071 44.3967 37.8205 44.3885 37.8291 44.3848C37.8339 44.3827 37.8439 44.3782 37.8691 44.3809ZM26.4033 3.76172C25.8714 5.07615 26.2837 6.60098 27.4355 7.46484L30.4424 9.7207C32.618 11.3523 35.7535 10.2746 36.4668 7.65039C36.512 7.48402 36.5876 7.40078 36.6562 7.35059C36.7365 7.29201 36.8513 7.2498 36.9844 7.24707C37.1173 7.24444 37.233 7.28173 37.3154 7.33691C37.3861 7.38423 37.4646 7.46446 37.5166 7.62891L38.9258 12.085C39.0747 12.5556 39.3129 12.9932 39.627 13.374L45.6748 20.7061C45.7448 20.7911 45.7876 20.8952 45.7979 21.0049L46.2969 26.3721C46.3065 26.4757 46.2865 26.5801 46.2393 26.6729L40.5996 37.7148C40.4906 37.9283 40.256 38.047 40.0195 38.0078L33.8135 36.9795C33.6308 36.9492 33.4756 36.8284 33.4004 36.6592L31.5264 32.4424L31.4326 32.25C30.4527 30.392 27.9061 30.077 26.502 31.6289L21.2529 27.9541C20.0315 27.0991 18.4264 27.0259 17.1318 27.7656L7.4668 33.2881C7.35655 33.3511 7.22777 33.3745 7.10254 33.3535L5.3291 33.0557C5.10798 33.0186 4.93142 32.8507 4.88281 32.6318L1.95996 19.4697C1.90834 19.2366 2.01279 18.9968 2.21875 18.876L9.03906 14.8828C9.45707 14.6381 9.82606 14.3167 10.125 13.9355L15.6543 6.88672C15.7476 6.76808 15.9173 6.74407 16.04 6.83203C18.0173 8.25086 20.804 7.3288 21.5449 5.01074L21.6914 4.55078C21.7584 4.34125 21.9441 4.19205 22.1631 4.1709L26.4033 3.76172Z" stroke="url(#paint0_linear_916_438)" stroke-width="3.30253"/>
<defs>
<linearGradient id="paint0_linear_916_438" x1="24" y1="8.12886" x2="24" y2="46.8883" gradientUnits="userSpaceOnUse">
<stop stop-color="#1C92FF"/>
<stop offset="1" stop-color="#2464FD"/>
</linearGradient>
</defs>
</svg>
