<svg width="19" height="19" viewBox="0 0 19 19" fill="none" xmlns="http://www.w3.org/2000/svg">
<path d="M9.01655 17.213C10.0932 17.2144 11.1594 17.0029 12.1541 16.5909C13.1487 16.1789 14.0521 15.5744 14.8124 14.8122C15.5747 14.0519 16.1792 13.1485 16.5912 12.1538C17.0032 11.1592 17.2146 10.0929 17.2133 9.01631C17.2146 7.9397 17.0032 6.87345 16.5912 5.8788C16.1792 4.88416 15.5747 3.98072 14.8124 3.22041C14.0521 2.45818 13.1487 1.85369 12.1541 1.44168C11.1594 1.02967 10.0932 0.818259 9.01655 0.819586C7.93995 0.818259 6.87369 1.02967 5.87905 1.44168C4.8844 1.85369 3.98097 2.45818 3.22065 3.22041C2.45842 3.98072 1.85394 4.88416 1.44193 5.8788C1.02992 6.87345 0.818503 7.9397 0.81983 9.01631C0.818503 10.0929 1.02992 11.1592 1.44193 12.1538C1.85394 13.1485 2.45842 14.0519 3.22065 14.8122C3.98097 15.5744 4.8844 16.1789 5.87905 16.5909C6.87369 17.0029 7.93995 17.2144 9.01655 17.213Z" stroke="#104FAE" stroke-width="1.63934" stroke-linejoin="round"/>
<path d="M5.73779 9.01639L8.19681 11.4754L13.1148 6.55737" stroke="#104FAE" stroke-width="1.63934" stroke-linecap="round" stroke-linejoin="round"/>
</svg>
