<svg width="48" height="48" viewBox="0 0 48 48" fill="none" xmlns="http://www.w3.org/2000/svg">
<path fill-rule="evenodd" clip-rule="evenodd" d="M12.0003 21.5996C13.2733 21.5996 14.4942 21.0939 15.3944 20.1937C16.2946 19.2935 16.8003 18.0726 16.8003 16.7996C16.8003 15.5266 16.2946 14.3057 15.3944 13.4055C14.4942 12.5053 13.2733 11.9996 12.0003 11.9996C10.7273 11.9996 9.50635 12.5053 8.60618 13.4055C7.70601 14.3057 7.20029 15.5266 7.20029 16.7996C7.20029 18.0726 7.70601 19.2935 8.60618 20.1937C9.50635 21.0939 10.7273 21.5996 12.0003 21.5996ZM12.0003 23.9996C12.9458 23.9996 13.8821 23.8134 14.7556 23.4515C15.6292 23.0897 16.4229 22.5594 17.0915 21.8908C17.76 21.2222 18.2904 20.4285 18.6522 19.5549C19.0141 18.6814 19.2003 17.7451 19.2003 16.7996C19.2003 15.8541 19.0141 14.9178 18.6522 14.0443C18.2904 13.1707 17.76 12.377 17.0915 11.7084C16.4229 11.0399 15.6292 10.5095 14.7556 10.1477C13.8821 9.78584 12.9458 9.59961 12.0003 9.59961C10.0907 9.59961 8.25939 10.3582 6.90912 11.7084C5.55886 13.0587 4.80029 14.8901 4.80029 16.7996C4.80029 18.7092 5.55886 20.5405 6.90912 21.8908C8.25939 23.241 10.0907 23.9996 12.0003 23.9996Z" fill="black"/>
<path fill-rule="evenodd" clip-rule="evenodd" d="M12.0003 21.5996C13.2733 21.5996 14.4942 21.0939 15.3944 20.1937C16.2946 19.2935 16.8003 18.0726 16.8003 16.7996C16.8003 15.5266 16.2946 14.3057 15.3944 13.4055C14.4942 12.5053 13.2733 11.9996 12.0003 11.9996C10.7273 11.9996 9.50635 12.5053 8.60618 13.4055C7.70601 14.3057 7.20029 15.5266 7.20029 16.7996C7.20029 18.0726 7.70601 19.2935 8.60618 20.1937C9.50635 21.0939 10.7273 21.5996 12.0003 21.5996ZM12.0003 23.9996C12.9458 23.9996 13.8821 23.8134 14.7556 23.4515C15.6292 23.0897 16.4229 22.5594 17.0915 21.8908C17.76 21.2222 18.2904 20.4285 18.6522 19.5549C19.0141 18.6814 19.2003 17.7451 19.2003 16.7996C19.2003 15.8541 19.0141 14.9178 18.6522 14.0443C18.2904 13.1707 17.76 12.377 17.0915 11.7084C16.4229 11.0399 15.6292 10.5095 14.7556 10.1477C13.8821 9.78584 12.9458 9.59961 12.0003 9.59961C10.0907 9.59961 8.25939 10.3582 6.90912 11.7084C5.55886 13.0587 4.80029 14.8901 4.80029 16.7996C4.80029 18.7092 5.55886 20.5405 6.90912 21.8908C8.25939 23.241 10.0907 23.9996 12.0003 23.9996Z" fill="url(#paint0_linear_916_427)"/>
<path fill-rule="evenodd" clip-rule="evenodd" d="M9.25019 21.3499C9.36194 21.4614 9.4506 21.5938 9.5111 21.7396C9.57159 21.8854 9.60273 22.0416 9.60273 22.1995C9.60273 22.3573 9.57159 22.5136 9.5111 22.6594C9.4506 22.8052 9.36194 22.9376 9.25019 23.0491L8.43899 23.8579C6.87787 25.4194 6.00079 27.537 6.00059 29.7451V34.1995C6.00059 34.5177 5.87416 34.823 5.64911 35.048C5.42407 35.2731 5.11885 35.3995 4.80059 35.3995C4.48233 35.3995 4.1771 35.2731 3.95206 35.048C3.72701 34.823 3.60059 34.5177 3.60059 34.1995V29.7451C3.60093 26.9006 4.73095 24.1726 6.74219 22.1611L7.55099 21.3499C7.66246 21.2381 7.79488 21.1495 7.94066 21.089C8.08645 21.0285 8.24274 20.9973 8.40059 20.9973C8.55843 20.9973 8.71472 21.0285 8.86051 21.089C9.00629 21.1495 9.13872 21.2381 9.25019 21.3499ZM37.551 20.6299C37.4392 20.7414 37.3506 20.8738 37.2901 21.0196C37.2296 21.1654 37.1984 21.3216 37.1984 21.4795C37.1984 21.6373 37.2296 21.7936 37.2901 21.9394C37.3506 22.0852 37.4392 22.2176 37.551 22.3291L38.3622 23.1379C39.9233 24.6994 40.8004 26.817 40.8006 29.0251V34.1995C40.8006 34.5177 40.927 34.823 41.1521 35.048C41.3771 35.2731 41.6823 35.3995 42.0006 35.3995C42.3188 35.3995 42.6241 35.2731 42.8491 35.048C43.0742 34.823 43.2006 34.5177 43.2006 34.1995V29.0251C43.2002 26.1806 42.0702 23.4526 40.059 21.4411L39.2502 20.6299C39.1387 20.5181 39.0063 20.4295 38.8605 20.369C38.7147 20.3085 38.5584 20.2773 38.4006 20.2773C38.2427 20.2773 38.0865 20.3085 37.9407 20.369C37.7949 20.4295 37.6625 20.5181 37.551 20.6299Z" fill="black"/>
<path fill-rule="evenodd" clip-rule="evenodd" d="M9.25019 21.3499C9.36194 21.4614 9.4506 21.5938 9.5111 21.7396C9.57159 21.8854 9.60273 22.0416 9.60273 22.1995C9.60273 22.3573 9.57159 22.5136 9.5111 22.6594C9.4506 22.8052 9.36194 22.9376 9.25019 23.0491L8.43899 23.8579C6.87787 25.4194 6.00079 27.537 6.00059 29.7451V34.1995C6.00059 34.5177 5.87416 34.823 5.64911 35.048C5.42407 35.2731 5.11885 35.3995 4.80059 35.3995C4.48233 35.3995 4.1771 35.2731 3.95206 35.048C3.72701 34.823 3.60059 34.5177 3.60059 34.1995V29.7451C3.60093 26.9006 4.73095 24.1726 6.74219 22.1611L7.55099 21.3499C7.66246 21.2381 7.79488 21.1495 7.94066 21.089C8.08645 21.0285 8.24274 20.9973 8.40059 20.9973C8.55843 20.9973 8.71472 21.0285 8.86051 21.089C9.00629 21.1495 9.13872 21.2381 9.25019 21.3499ZM37.551 20.6299C37.4392 20.7414 37.3506 20.8738 37.2901 21.0196C37.2296 21.1654 37.1984 21.3216 37.1984 21.4795C37.1984 21.6373 37.2296 21.7936 37.2901 21.9394C37.3506 22.0852 37.4392 22.2176 37.551 22.3291L38.3622 23.1379C39.9233 24.6994 40.8004 26.817 40.8006 29.0251V34.1995C40.8006 34.5177 40.927 34.823 41.1521 35.048C41.3771 35.2731 41.6823 35.3995 42.0006 35.3995C42.3188 35.3995 42.6241 35.2731 42.8491 35.048C43.0742 34.823 43.2006 34.5177 43.2006 34.1995V29.0251C43.2002 26.1806 42.0702 23.4526 40.059 21.4411L39.2502 20.6299C39.1387 20.5181 39.0063 20.4295 38.8605 20.369C38.7147 20.3085 38.5584 20.2773 38.4006 20.2773C38.2427 20.2773 38.0865 20.3085 37.9407 20.369C37.7949 20.4295 37.6625 20.5181 37.551 20.6299Z" fill="url(#paint1_linear_916_427)"/>
<path fill-rule="evenodd" clip-rule="evenodd" d="M33.5994 21.5996C32.3264 21.5996 31.1055 21.0939 30.2053 20.1937C29.3051 19.2935 28.7994 18.0726 28.7994 16.7996C28.7994 15.5266 29.3051 14.3057 30.2053 13.4055C31.1055 12.5053 32.3264 11.9996 33.5994 11.9996C34.8725 11.9996 36.0934 12.5053 36.9935 13.4055C37.8937 14.3057 38.3994 15.5266 38.3994 16.7996C38.3994 18.0726 37.8937 19.2935 36.9935 20.1937C36.0934 21.0939 34.8725 21.5996 33.5994 21.5996ZM33.5994 23.9996C32.6539 23.9996 31.7176 23.8134 30.8441 23.4515C29.9705 23.0897 29.1768 22.5594 28.5082 21.8908C27.8397 21.2222 27.3093 20.4285 26.9475 19.5549C26.5856 18.6814 26.3994 17.7451 26.3994 16.7996C26.3994 15.8541 26.5856 14.9178 26.9475 14.0443C27.3093 13.1707 27.8397 12.377 28.5082 11.7084C29.1768 11.0399 29.9705 10.5095 30.8441 10.1477C31.7176 9.78584 32.6539 9.59961 33.5994 9.59961C35.509 9.59961 37.3403 10.3582 38.6906 11.7084C40.0408 13.0587 40.7994 14.8901 40.7994 16.7996C40.7994 18.7092 40.0408 20.5405 38.6906 21.8908C37.3403 23.241 35.509 23.9996 33.5994 23.9996ZM22.7994 31.7996C21.2081 31.7996 19.682 32.4317 18.5568 33.557C17.4316 34.6822 16.7994 36.2083 16.7994 37.7996V40.9196C16.7994 41.2379 16.673 41.5431 16.4479 41.7681C16.2229 41.9932 15.9177 42.1196 15.5994 42.1196C15.2812 42.1196 14.9759 41.9932 14.7509 41.7681C14.5258 41.5431 14.3994 41.2379 14.3994 40.9196V37.7996C14.3994 35.5718 15.2844 33.4352 16.8597 31.8599C18.435 30.2846 20.5716 29.3996 22.7994 29.3996C25.0272 29.3996 27.1638 30.2846 28.7391 31.8599C30.3144 33.4352 31.1994 35.5718 31.1994 37.7996V40.9196C31.1994 41.2379 31.073 41.5431 30.8479 41.7681C30.6229 41.9932 30.3177 42.1196 29.9994 42.1196C29.6812 42.1196 29.3759 41.9932 29.1509 41.7681C28.9258 41.5431 28.7994 41.2379 28.7994 40.9196V37.7996C28.7994 37.0117 28.6442 36.2315 28.3427 35.5035C28.0412 34.7756 27.5992 34.1141 27.0421 33.557C26.4849 32.9998 25.8235 32.5579 25.0955 32.2563C24.3676 31.9548 23.5873 31.7996 22.7994 31.7996Z" fill="black"/>
<path fill-rule="evenodd" clip-rule="evenodd" d="M33.5994 21.5996C32.3264 21.5996 31.1055 21.0939 30.2053 20.1937C29.3051 19.2935 28.7994 18.0726 28.7994 16.7996C28.7994 15.5266 29.3051 14.3057 30.2053 13.4055C31.1055 12.5053 32.3264 11.9996 33.5994 11.9996C34.8725 11.9996 36.0934 12.5053 36.9935 13.4055C37.8937 14.3057 38.3994 15.5266 38.3994 16.7996C38.3994 18.0726 37.8937 19.2935 36.9935 20.1937C36.0934 21.0939 34.8725 21.5996 33.5994 21.5996ZM33.5994 23.9996C32.6539 23.9996 31.7176 23.8134 30.8441 23.4515C29.9705 23.0897 29.1768 22.5594 28.5082 21.8908C27.8397 21.2222 27.3093 20.4285 26.9475 19.5549C26.5856 18.6814 26.3994 17.7451 26.3994 16.7996C26.3994 15.8541 26.5856 14.9178 26.9475 14.0443C27.3093 13.1707 27.8397 12.377 28.5082 11.7084C29.1768 11.0399 29.9705 10.5095 30.8441 10.1477C31.7176 9.78584 32.6539 9.59961 33.5994 9.59961C35.509 9.59961 37.3403 10.3582 38.6906 11.7084C40.0408 13.0587 40.7994 14.8901 40.7994 16.7996C40.7994 18.7092 40.0408 20.5405 38.6906 21.8908C37.3403 23.241 35.509 23.9996 33.5994 23.9996ZM22.7994 31.7996C21.2081 31.7996 19.682 32.4317 18.5568 33.557C17.4316 34.6822 16.7994 36.2083 16.7994 37.7996V40.9196C16.7994 41.2379 16.673 41.5431 16.4479 41.7681C16.2229 41.9932 15.9177 42.1196 15.5994 42.1196C15.2812 42.1196 14.9759 41.9932 14.7509 41.7681C14.5258 41.5431 14.3994 41.2379 14.3994 40.9196V37.7996C14.3994 35.5718 15.2844 33.4352 16.8597 31.8599C18.435 30.2846 20.5716 29.3996 22.7994 29.3996C25.0272 29.3996 27.1638 30.2846 28.7391 31.8599C30.3144 33.4352 31.1994 35.5718 31.1994 37.7996V40.9196C31.1994 41.2379 31.073 41.5431 30.8479 41.7681C30.6229 41.9932 30.3177 42.1196 29.9994 42.1196C29.6812 42.1196 29.3759 41.9932 29.1509 41.7681C28.9258 41.5431 28.7994 41.2379 28.7994 40.9196V37.7996C28.7994 37.0117 28.6442 36.2315 28.3427 35.5035C28.0412 34.7756 27.5992 34.1141 27.0421 33.557C26.4849 32.9998 25.8235 32.5579 25.0955 32.2563C24.3676 31.9548 23.5873 31.7996 22.7994 31.7996Z" fill="url(#paint2_linear_916_427)"/>
<path fill-rule="evenodd" clip-rule="evenodd" d="M22.8006 28.1992C24.0736 28.1992 25.2945 27.6935 26.1947 26.7933C27.0949 25.8932 27.6006 24.6723 27.6006 23.3992C27.6006 22.1262 27.0949 20.9053 26.1947 20.0051C25.2945 19.1049 24.0736 18.5992 22.8006 18.5992C21.5275 18.5992 20.3066 19.1049 19.4065 20.0051C18.5063 20.9053 18.0006 22.1262 18.0006 23.3992C18.0006 24.6723 18.5063 25.8932 19.4065 26.7933C20.3066 27.6935 21.5275 28.1992 22.8006 28.1992ZM22.8006 30.5992C24.7101 30.5992 26.5415 29.8407 27.8918 28.4904C29.242 27.1401 30.0006 25.3088 30.0006 23.3992C30.0006 21.4897 29.242 19.6583 27.8918 18.3081C26.5415 16.9578 24.7101 16.1992 22.8006 16.1992C20.891 16.1992 19.0597 16.9578 17.7094 18.3081C16.3592 19.6583 15.6006 21.4897 15.6006 23.3992C15.6006 25.3088 16.3592 27.1401 17.7094 28.4904C19.0597 29.8407 20.891 30.5992 22.8006 30.5992Z" fill="black"/>
<path fill-rule="evenodd" clip-rule="evenodd" d="M22.8006 28.1992C24.0736 28.1992 25.2945 27.6935 26.1947 26.7933C27.0949 25.8932 27.6006 24.6723 27.6006 23.3992C27.6006 22.1262 27.0949 20.9053 26.1947 20.0051C25.2945 19.1049 24.0736 18.5992 22.8006 18.5992C21.5275 18.5992 20.3066 19.1049 19.4065 20.0051C18.5063 20.9053 18.0006 22.1262 18.0006 23.3992C18.0006 24.6723 18.5063 25.8932 19.4065 26.7933C20.3066 27.6935 21.5275 28.1992 22.8006 28.1992ZM22.8006 30.5992C24.7101 30.5992 26.5415 29.8407 27.8918 28.4904C29.242 27.1401 30.0006 25.3088 30.0006 23.3992C30.0006 21.4897 29.242 19.6583 27.8918 18.3081C26.5415 16.9578 24.7101 16.1992 22.8006 16.1992C20.891 16.1992 19.0597 16.9578 17.7094 18.3081C16.3592 19.6583 15.6006 21.4897 15.6006 23.3992C15.6006 25.3088 16.3592 27.1401 17.7094 28.4904C19.0597 29.8407 20.891 30.5992 22.8006 30.5992Z" fill="url(#paint3_linear_916_427)"/>
<defs>
<linearGradient id="paint0_linear_916_427" x1="12.0003" y1="12.0961" x2="12.0003" y2="23.9997" gradientUnits="userSpaceOnUse">
<stop stop-color="#1C92FF"/>
<stop offset="1" stop-color="#2464FD"/>
</linearGradient>
<linearGradient id="paint1_linear_916_427" x1="23.4006" y1="22.899" x2="23.4006" y2="35.3996" gradientUnits="userSpaceOnUse">
<stop stop-color="#1C92FF"/>
<stop offset="1" stop-color="#2464FD"/>
</linearGradient>
<linearGradient id="paint2_linear_916_427" x1="27.5994" y1="15.2375" x2="27.5994" y2="42.1199" gradientUnits="userSpaceOnUse">
<stop stop-color="#1C92FF"/>
<stop offset="1" stop-color="#2464FD"/>
</linearGradient>
<linearGradient id="paint3_linear_916_427" x1="22.8006" y1="18.6957" x2="22.8006" y2="30.5993" gradientUnits="userSpaceOnUse">
<stop stop-color="#1C92FF"/>
<stop offset="1" stop-color="#2464FD"/>
</linearGradient>
</defs>
</svg>
