<svg width="48" height="48" viewBox="0 0 48 48" fill="none" xmlns="http://www.w3.org/2000/svg">
<path d="M18.7247 34.871L19.2 34.3393V31.7173L11.4125 15H7.7875L0 31.7173V34.4671L0.4234 34.9344C1.5863 36.2148 2.99696 37.2369 4.56681 37.9365C6.13666 38.6361 7.83179 38.9982 9.5458 39H9.5878C11.3089 38.9923 13.0096 38.6213 14.5824 37.9105C16.1551 37.1998 17.5657 36.1648 18.7247 34.871ZM16 33.0604C14.2928 34.7847 11.9831 35.7505 9.5769 35.7462H9.5439C7.18004 35.7583 4.90452 34.8335 3.2 33.1681V32.4494L9.6 18.7103L16 32.4494V33.0604ZM40.2125 15H36.5875L28.8 31.7173V34.4671L29.2234 34.9344C30.3863 36.2148 31.797 37.2369 33.3668 37.9365C34.9367 38.6361 36.6318 38.9982 38.3458 39H38.3878C40.1089 38.9922 41.8096 38.6212 43.3824 37.9104C44.9552 37.1997 46.3657 36.1646 47.5247 34.8708L48 34.3393V31.7173L40.2125 15ZM44.8 33.0604C43.0928 34.7847 40.7831 35.7505 38.3769 35.7462H38.3439C35.98 35.7583 33.7045 34.8335 32 33.1681V32.4494L38.4 18.7103L44.8 32.4494V33.0604Z" fill="black"/>
<path d="M18.7247 34.871L19.2 34.3393V31.7173L11.4125 15H7.7875L0 31.7173V34.4671L0.4234 34.9344C1.5863 36.2148 2.99696 37.2369 4.56681 37.9365C6.13666 38.6361 7.83179 38.9982 9.5458 39H9.5878C11.3089 38.9923 13.0096 38.6213 14.5824 37.9105C16.1551 37.1998 17.5657 36.1648 18.7247 34.871ZM16 33.0604C14.2928 34.7847 11.9831 35.7505 9.5769 35.7462H9.5439C7.18004 35.7583 4.90452 34.8335 3.2 33.1681V32.4494L9.6 18.7103L16 32.4494V33.0604ZM40.2125 15H36.5875L28.8 31.7173V34.4671L29.2234 34.9344C30.3863 36.2148 31.797 37.2369 33.3668 37.9365C34.9367 38.6361 36.6318 38.9982 38.3458 39H38.3878C40.1089 38.9922 41.8096 38.6212 43.3824 37.9104C44.9552 37.1997 46.3657 36.1646 47.5247 34.8708L48 34.3393V31.7173L40.2125 15ZM44.8 33.0604C43.0928 34.7847 40.7831 35.7505 38.3769 35.7462H38.3439C35.98 35.7583 33.7045 34.8335 32 33.1681V32.4494L38.4 18.7103L44.8 32.4494V33.0604Z" fill="url(#paint0_linear_916_444)"/>
<path d="M25.5 16.4821C26.3345 16.2264 27.0937 15.7638 27.7098 15.1355C28.326 14.5073 28.7797 13.7332 29.0305 12.8824H39V9.82355H29.0305C28.7077 8.71887 28.0436 7.74999 27.1372 7.06107C26.2308 6.37215 25.1305 6 24 6C22.8695 6 21.7692 6.37215 20.8628 7.06107C19.9564 7.74999 19.2923 8.71887 18.9695 9.82355H9V12.8824H18.9695C19.2203 13.7332 19.674 14.5073 20.2902 15.1355C20.9063 15.7638 21.6655 16.2264 22.5 16.4821V41.9412H12.75V45H35.25V41.9412H25.5V16.4821ZM21.75 11.353C21.75 10.8992 21.882 10.4557 22.1292 10.0784C22.3764 9.70116 22.7278 9.40711 23.139 9.23348C23.5501 9.05984 24.0025 9.01441 24.439 9.10293C24.8754 9.19145 25.2763 9.40994 25.591 9.73078C25.9057 10.0516 26.12 10.4604 26.2068 10.9054C26.2936 11.3504 26.249 11.8117 26.0787 12.2309C25.9084 12.6501 25.62 13.0084 25.25 13.2605C24.88 13.5125 24.445 13.6471 24 13.6471C23.4033 13.6471 22.831 13.4054 22.409 12.9751C21.9871 12.5449 21.75 11.9614 21.75 11.353Z" fill="black"/>
<path d="M25.5 16.4821C26.3345 16.2264 27.0937 15.7638 27.7098 15.1355C28.326 14.5073 28.7797 13.7332 29.0305 12.8824H39V9.82355H29.0305C28.7077 8.71887 28.0436 7.74999 27.1372 7.06107C26.2308 6.37215 25.1305 6 24 6C22.8695 6 21.7692 6.37215 20.8628 7.06107C19.9564 7.74999 19.2923 8.71887 18.9695 9.82355H9V12.8824H18.9695C19.2203 13.7332 19.674 14.5073 20.2902 15.1355C20.9063 15.7638 21.6655 16.2264 22.5 16.4821V41.9412H12.75V45H35.25V41.9412H25.5V16.4821ZM21.75 11.353C21.75 10.8992 21.882 10.4557 22.1292 10.0784C22.3764 9.70116 22.7278 9.40711 23.139 9.23348C23.5501 9.05984 24.0025 9.01441 24.439 9.10293C24.8754 9.19145 25.2763 9.40994 25.591 9.73078C25.9057 10.0516 26.12 10.4604 26.2068 10.9054C26.2936 11.3504 26.249 11.8117 26.0787 12.2309C25.9084 12.6501 25.62 13.0084 25.25 13.2605C24.88 13.5125 24.445 13.6471 24 13.6471C23.4033 13.6471 22.831 13.4054 22.409 12.9751C21.9871 12.5449 21.75 11.9614 21.75 11.353Z" fill="url(#paint1_linear_916_444)"/>
<defs>
<linearGradient id="paint0_linear_916_444" x1="24" y1="19.1608" x2="24" y2="39.0002" gradientUnits="userSpaceOnUse">
<stop stop-color="#1C92FF"/>
<stop offset="1" stop-color="#2464FD"/>
</linearGradient>
<linearGradient id="paint1_linear_916_444" x1="24" y1="12.7614" x2="24" y2="45.0003" gradientUnits="userSpaceOnUse">
<stop stop-color="#1C92FF"/>
<stop offset="1" stop-color="#2464FD"/>
</linearGradient>
</defs>
</svg>
