<svg width="16" height="16" viewBox="0 0 16 16" fill="none" xmlns="http://www.w3.org/2000/svg">
<g clip-path="url(#clip0_395_1997)">
<path d="M8.81982 1.2832C8.63811 1.73182 8.77922 2.25201 9.17236 2.54688L10.1968 3.31641C10.9397 3.8735 12.0106 3.50536 12.2544 2.60938L12.4204 1.99707L13.0933 4.12402C13.1441 4.28451 13.2254 4.4336 13.3325 4.56348L15.396 7.06543C15.42 7.09448 15.4345 7.13048 15.438 7.16797L15.6079 8.99902C15.6112 9.03438 15.6045 9.06991 15.5884 9.10156L13.6646 12.8701C13.6273 12.9429 13.547 12.9831 13.4663 12.9697L11.3481 12.6191C11.286 12.6087 11.2331 12.5674 11.2075 12.5098L10.5679 11.0703C10.2604 10.3789 9.35018 10.2469 8.85498 10.7939L7.06299 9.53906C6.64616 9.2472 6.09757 9.22215 5.65576 9.47461L2.35791 11.3594C2.32037 11.3808 2.27651 11.3889 2.23389 11.3818L1.62842 11.2803C1.55309 11.2676 1.49274 11.2103 1.47607 11.1357L0.479004 6.64355C0.46154 6.56419 0.496877 6.48264 0.566895 6.44141L2.89502 5.0791C3.03758 4.99563 3.16316 4.88583 3.26514 4.75586L5.15186 2.34961C5.18372 2.30933 5.2419 2.30114 5.28369 2.33105C5.95836 2.81517 6.90868 2.50082 7.16162 1.70996L7.2124 1.55273C7.2353 1.48149 7.29809 1.4302 7.37256 1.42285L8.81982 1.2832Z" stroke="#968610" stroke-width="1.12695"/>
<path d="M8.26371 4.31684L10.8933 5.30293C11.0365 5.35662 11.1599 5.45276 11.2471 5.57849C11.3342 5.70422 11.3809 5.85355 11.3809 6.00652V8.02114C11.3809 8.64902 11.206 9.26449 10.876 9.79859C10.5459 10.3327 10.0736 10.7643 9.512 11.0451L8.25206 11.6747C8.1738 11.7139 8.08751 11.7342 8 11.7342C7.9125 11.7342 7.8262 11.7139 7.74794 11.6747L6.48801 11.0448C5.92642 10.764 5.45413 10.3323 5.12404 9.79822C4.79396 9.26411 4.61913 8.64864 4.61914 8.02077V6.0069C4.61905 5.85386 4.66569 5.70445 4.75282 5.57864C4.83996 5.45284 4.96344 5.35664 5.10674 5.30293L7.7363 4.31684C7.90632 4.25311 8.09368 4.25311 8.26371 4.31684ZM8 6.4975C7.90799 6.49751 7.81919 6.53129 7.75043 6.59243C7.68167 6.65357 7.63775 6.73782 7.62698 6.8292L7.62435 6.87315V7.62445H6.87305C6.7773 7.62456 6.68521 7.66122 6.61559 7.72695C6.54597 7.79268 6.50407 7.88251 6.49846 7.97809C6.49285 8.07367 6.52395 8.16779 6.5854 8.24121C6.64685 8.31463 6.73402 8.36182 6.8291 8.37313L6.87305 8.37576H7.62435V9.12706C7.62446 9.22281 7.66112 9.3149 7.72685 9.38452C7.79257 9.45414 7.88241 9.49604 7.97799 9.50165C8.07357 9.50726 8.16769 9.47616 8.24111 9.41471C8.31453 9.35326 8.36172 9.26609 8.37302 9.17101L8.37565 9.12706V8.37576H9.12696C9.2227 8.37565 9.31479 8.33899 9.38442 8.27326C9.45404 8.20753 9.49593 8.1177 9.50155 8.02212C9.50716 7.92654 9.47606 7.83242 9.41461 7.759C9.35315 7.68558 9.26598 7.63839 9.17091 7.62708L9.12696 7.62445H8.37565V6.87315C8.37565 6.77352 8.33608 6.67797 8.26563 6.60753C8.19518 6.53708 8.09963 6.4975 8 6.4975Z" fill="#968610"/>
</g>
<defs>
<clipPath id="clip0_395_1997">
<rect width="16" height="16" fill="white"/>
</clipPath>
</defs>
</svg>
