<svg width="48" height="48" viewBox="0 0 48 48" fill="none" xmlns="http://www.w3.org/2000/svg">
<path d="M24 6.00042C27.33 6.00042 30.48 6.69042 33.33 7.93242L31.02 10.2454C28.771 9.42259 26.3948 9.00217 24 9.00342C12.42 9.00342 3 18.6934 3 30.3034C3 33.7234 3.825 36.9634 5.283 39.8134C5.37936 39.9896 5.43937 40.1833 5.45947 40.3831C5.47957 40.5829 5.45936 40.7846 5.40003 40.9765C5.3407 41.1683 5.24347 41.3463 5.11408 41.4998C4.9847 41.6534 4.8258 41.7794 4.64682 41.8704C4.46783 41.9614 4.2724 42.0155 4.0721 42.0296C3.8718 42.0436 3.67072 42.0173 3.48077 41.9523C3.29082 41.8872 3.11587 41.7846 2.96629 41.6507C2.81672 41.5167 2.69556 41.3541 2.61 41.1724C0.893445 37.799 -0.000898682 34.0674 6.77631e-07 30.2824C6.77631e-07 17.0524 10.71 5.98242 24 5.98242V6.00042ZM45.9 20.7004C47.172 23.6584 47.88 26.9104 47.88 30.3004C47.88 34.2304 46.935 37.9204 45.27 41.1904C45.0828 41.5326 44.7698 41.7884 44.3972 41.9036C44.0246 42.0188 43.6218 41.9844 43.2742 41.8077C42.9266 41.6309 42.6614 41.3258 42.535 40.9568C42.4086 40.5879 42.4308 40.1842 42.597 39.8314C44.055 36.9724 44.88 33.7414 44.88 30.3214C44.88 27.7714 44.424 25.3114 43.593 23.0314L45.897 20.7244L45.9 20.7004ZM40.2 12.0004C40.6803 12.0073 41.1394 12.1997 41.481 12.5374C41.8187 12.8791 42.0111 13.3381 42.018 13.8184C42.0314 14.3 41.8633 14.769 41.547 15.1324L40.776 15.9784L26.976 31.2184L26.208 32.0674C25.9486 32.3603 25.6299 32.5947 25.273 32.755C24.9161 32.9153 24.5292 32.998 24.138 32.9974C23.343 32.9974 22.554 32.6554 21.96 32.0674C21.3747 31.4924 21.0395 30.7099 21.027 29.8894C21.027 29.0914 21.369 28.3534 21.96 27.8194L22.809 27.0514L38.049 13.2514L38.895 12.4804C39.2569 12.1615 39.7269 11.993 40.209 12.0094L40.2 12.0004Z" fill="black"/>
<path d="M24 6.00042C27.33 6.00042 30.48 6.69042 33.33 7.93242L31.02 10.2454C28.771 9.42259 26.3948 9.00217 24 9.00342C12.42 9.00342 3 18.6934 3 30.3034C3 33.7234 3.825 36.9634 5.283 39.8134C5.37936 39.9896 5.43937 40.1833 5.45947 40.3831C5.47957 40.5829 5.45936 40.7846 5.40003 40.9765C5.3407 41.1683 5.24347 41.3463 5.11408 41.4998C4.9847 41.6534 4.8258 41.7794 4.64682 41.8704C4.46783 41.9614 4.2724 42.0155 4.0721 42.0296C3.8718 42.0436 3.67072 42.0173 3.48077 41.9523C3.29082 41.8872 3.11587 41.7846 2.96629 41.6507C2.81672 41.5167 2.69556 41.3541 2.61 41.1724C0.893445 37.799 -0.000898682 34.0674 6.77631e-07 30.2824C6.77631e-07 17.0524 10.71 5.98242 24 5.98242V6.00042ZM45.9 20.7004C47.172 23.6584 47.88 26.9104 47.88 30.3004C47.88 34.2304 46.935 37.9204 45.27 41.1904C45.0828 41.5326 44.7698 41.7884 44.3972 41.9036C44.0246 42.0188 43.6218 41.9844 43.2742 41.8077C42.9266 41.6309 42.6614 41.3258 42.535 40.9568C42.4086 40.5879 42.4308 40.1842 42.597 39.8314C44.055 36.9724 44.88 33.7414 44.88 30.3214C44.88 27.7714 44.424 25.3114 43.593 23.0314L45.897 20.7244L45.9 20.7004ZM40.2 12.0004C40.6803 12.0073 41.1394 12.1997 41.481 12.5374C41.8187 12.8791 42.0111 13.3381 42.018 13.8184C42.0314 14.3 41.8633 14.769 41.547 15.1324L40.776 15.9784L26.976 31.2184L26.208 32.0674C25.9486 32.3603 25.6299 32.5947 25.273 32.755C24.9161 32.9153 24.5292 32.998 24.138 32.9974C23.343 32.9974 22.554 32.6554 21.96 32.0674C21.3747 31.4924 21.0395 30.7099 21.027 29.8894C21.027 29.0914 21.369 28.3534 21.96 27.8194L22.809 27.0514L38.049 13.2514L38.895 12.4804C39.2569 12.1615 39.7269 11.993 40.209 12.0094L40.2 12.0004Z" fill="url(#paint0_linear_916_451)"/>
<defs>
<linearGradient id="paint0_linear_916_451" x1="23.94" y1="12.2325" x2="23.94" y2="42.0336" gradientUnits="userSpaceOnUse">
<stop stop-color="#1C92FF"/>
<stop offset="1" stop-color="#2464FD"/>
</linearGradient>
</defs>
</svg>
