<svg width="16" height="16" viewBox="0 0 16 16" fill="none" xmlns="http://www.w3.org/2000/svg">
<path d="M5.05612 12.3813L7.9996 10.6059L10.9431 12.4047L10.1722 9.04068L12.7652 6.79803L9.35454 6.49434L7.9996 3.31725L6.64467 6.47098L3.23397 6.77467L5.82703 9.04068L5.05612 12.3813ZM7.9996 12.8018L4.12169 15.1379C3.95037 15.2469 3.77127 15.2936 3.58439 15.278C3.3975 15.2625 3.23397 15.2002 3.09381 15.0912C2.95364 14.9821 2.84462 14.846 2.76675 14.6828C2.68888 14.5196 2.67331 14.3364 2.72003 14.1334L3.74791 9.71815L0.313855 6.75131C0.158115 6.61114 0.0609338 6.45135 0.0223104 6.27194C-0.016313 6.09253 -0.0047883 5.91748 0.0568846 5.74679C0.118557 5.5761 0.212001 5.43593 0.337216 5.32629C0.46243 5.21665 0.633744 5.14657 0.851156 5.11604L5.38318 4.71891L7.13525 0.560663C7.21312 0.373775 7.33397 0.233609 7.49781 0.140165C7.66165 0.0467217 7.82891 0 7.9996 0C8.17029 0 8.33756 0.0467217 8.50139 0.140165C8.66523 0.233609 8.78609 0.373775 8.86396 0.560663L10.616 4.71891L15.148 5.11604C15.3661 5.14719 15.5374 5.21727 15.662 5.32629C15.7866 5.43531 15.88 5.57548 15.9423 5.74679C16.0046 5.9181 16.0164 6.09347 15.9778 6.27288C15.9392 6.45229 15.8417 6.61177 15.6853 6.75131L12.2513 9.71815L13.2792 14.1334C13.3259 14.3358 13.3103 14.519 13.2325 14.6828C13.1546 14.8467 13.0456 14.9828 12.9054 15.0912C12.7652 15.1996 12.6017 15.2619 12.4148 15.278C12.2279 15.2942 12.0488 15.2475 11.8775 15.1379L7.9996 12.8018Z" fill="#269610"/>
</svg>
