<svg preserveAspectRatio="none" width="100%" height="100%" overflow="visible" style="display: block;" viewBox="0 0 304.399 43.7075" fill="none" xmlns="http://www.w3.org/2000/svg">
<g id="Vector 68" opacity="0.6">
<path d="M7.50136 39.5859C7.34807 38.6704 6.92965 37.7925 6.24237 37.1451C5.5558 36.4978 4.66815 36.1341 3.75136 36.1341C2.83458 36.1341 1.94693 36.4978 1.26036 37.1451C0.573078 37.7925 0.154653 38.6704 0.0013628 39.5859C0.0013628 39.5859 0.0013628 39.5859 0.0013628 39.5859C-0.0326116 40.6611 0.574616 41.807 1.15251 42.3301C1.70588 42.8772 2.30963 43.1132 2.38642 43.1507C2.76389 43.3116 3.02841 43.3745 3.25 43.4235C3.36038 43.4471 3.45906 43.4645 3.5506 43.4788C3.6256 43.4909 3.6662 43.4981 3.72065 43.5062C3.82357 43.5218 3.91867 43.5339 4.00972 43.5441C4.41413 43.5832 4.57505 43.5988 4.82809 43.6142C5.09491 43.6264 5.2345 43.641 5.44405 43.6492C5.64876 43.6574 5.83499 43.6644 6.00609 43.6718C6.76212 43.6923 7.41081 43.7034 8.07428 43.7069C9.40548 43.7116 10.7183 43.6874 12.0147 43.6528C14.5997 43.5832 17.1521 43.463 19.7051 43.3104C35.0566 42.3652 50.105 40.4159 65.0418 37.7214C69.6917 36.8879 74.3445 36.1571 79.0229 35.5183C94.2912 33.4103 109.981 33.1769 126.03 33.3492C147.216 33.7854 169.666 35.1968 191.898 34.2915C204.886 33.8801 218.028 31.9227 230.159 29.7762C238.372 28.5419 245.947 25.6622 252.377 24.3768C259.733 23.0912 267 20.2842 273.186 17.7413C277.886 15.8829 282.766 14.1499 287.663 12.3633C289.034 11.8636 290.409 11.3598 291.784 10.848L291.883 10.8156C293.32 10.2404 294.756 9.66438 296.193 9.08752C298 8.33288 299.493 7.85585 301.387 7.41799C302.331 7.20099 303.177 6.64792 303.733 5.84395C304.289 5.04032 304.51 4.05738 304.346 3.10418C304.182 2.15097 303.646 1.29826 302.854 0.726435C302.061 0.15427 301.079 -0.0844052 300.116 0.0264213C300.116 0.0264213 300.116 0.0264213 300.116 0.0264213C298.017 0.257002 295.567 0.753704 293.562 1.36047C292.072 1.77983 290.582 2.20002 289.093 2.62103L289.192 2.58865C287.796 2.94648 286.394 3.30032 284.987 3.65397C279.958 4.92124 274.884 6.16952 269.75 7.64989C262.895 9.72073 256.965 11.3879 250.56 11.9678C242.057 12.9979 235.222 15.0672 228.389 15.5343C215.696 16.811 203.86 17.7699 191.741 17.4894C170.202 17.1606 148.976 14.9469 126.462 13.9338C110.092 13.371 93.2152 13.373 76.3161 15.7023C71.1494 16.4075 66.0078 17.3894 60.9391 18.6471C46.2633 22.3013 31.7837 26.6879 17.4318 31.5277C15.0495 32.3264 12.6788 33.1329 10.3235 33.9237C9.14476 34.3186 7.9565 34.7122 6.8124 35.08C6.24684 35.2624 5.69599 35.439 5.14583 35.6003C4.91401 35.6763 4.62916 35.7531 4.44981 35.8128C4.35952 35.8435 4.28565 35.868 4.32115 35.8946C4.33275 35.9016 4.35406 35.9091 4.38888 35.9187C4.41915 35.9283 4.47748 35.9383 4.61738 35.9699C4.75351 36.0032 4.94751 36.0469 5.26948 36.1848C5.33067 36.217 5.86585 36.4192 6.39483 36.9392C6.94301 37.4334 7.53534 38.5469 7.50136 39.5859Z" fill="var(--stroke-0, white)"/>
<path d="M7.50136 39.5859C7.34807 38.6704 6.92965 37.7925 6.24237 37.1451C5.5558 36.4978 4.66815 36.1341 3.75136 36.1341C2.83458 36.1341 1.94693 36.4978 1.26036 37.1451C0.573078 37.7925 0.154653 38.6704 0.0013628 39.5859C0.0013628 39.5859 0.0013628 39.5859 0.0013628 39.5859C-0.0326116 40.6611 0.574616 41.807 1.15251 42.3301C1.70588 42.8772 2.30963 43.1132 2.38642 43.1507C2.76389 43.3116 3.02841 43.3745 3.25 43.4235C3.36038 43.4471 3.45906 43.4645 3.5506 43.4788C3.6256 43.4909 3.6662 43.4981 3.72065 43.5062C3.82357 43.5218 3.91867 43.5339 4.00972 43.5441C4.41413 43.5832 4.57505 43.5988 4.82809 43.6142C5.09491 43.6264 5.2345 43.641 5.44405 43.6492C5.64876 43.6574 5.83499 43.6644 6.00609 43.6718C6.76212 43.6923 7.41081 43.7034 8.07428 43.7069C9.40548 43.7116 10.7183 43.6874 12.0147 43.6528C14.5997 43.5832 17.1521 43.463 19.7051 43.3104C35.0566 42.3652 50.105 40.4159 65.0418 37.7214C69.6917 36.8879 74.3445 36.1571 79.0229 35.5183C94.2912 33.4103 109.981 33.1769 126.03 33.3492C147.216 33.7854 169.666 35.1968 191.898 34.2915C204.886 33.8801 218.028 31.9227 230.159 29.7762C238.372 28.5419 245.947 25.6622 252.377 24.3768C259.733 23.0912 267 20.2842 273.186 17.7413C277.886 15.8829 282.766 14.1499 287.663 12.3633C289.034 11.8636 290.409 11.3598 291.784 10.848L291.883 10.8156C293.32 10.2404 294.756 9.66438 296.193 9.08752C298 8.33288 299.493 7.85585 301.387 7.41799C302.331 7.20099 303.177 6.64792 303.733 5.84395C304.289 5.04032 304.51 4.05738 304.346 3.10418C304.182 2.15097 303.646 1.29826 302.854 0.726435C302.061 0.15427 301.079 -0.0844052 300.116 0.0264213C300.116 0.0264213 300.116 0.0264213 300.116 0.0264213C298.017 0.257002 295.567 0.753704 293.562 1.36047C292.072 1.77983 290.582 2.20002 289.093 2.62103L289.192 2.58865C287.796 2.94648 286.394 3.30032 284.987 3.65397C279.958 4.92124 274.884 6.16952 269.75 7.64989C262.895 9.72073 256.965 11.3879 250.56 11.9678C242.057 12.9979 235.222 15.0672 228.389 15.5343C215.696 16.811 203.86 17.7699 191.741 17.4894C170.202 17.1606 148.976 14.9469 126.462 13.9338C110.092 13.371 93.2152 13.373 76.3161 15.7023C71.1494 16.4075 66.0078 17.3894 60.9391 18.6471C46.2633 22.3013 31.7837 26.6879 17.4318 31.5277C15.0495 32.3264 12.6788 33.1329 10.3235 33.9237C9.14476 34.3186 7.9565 34.7122 6.8124 35.08C6.24684 35.2624 5.69599 35.439 5.14583 35.6003C4.91401 35.6763 4.62916 35.7531 4.44981 35.8128C4.35952 35.8435 4.28565 35.868 4.32115 35.8946C4.33275 35.9016 4.35406 35.9091 4.38888 35.9187C4.41915 35.9283 4.47748 35.9383 4.61738 35.9699C4.75351 36.0032 4.94751 36.0469 5.26948 36.1848C5.33067 36.217 5.86585 36.4192 6.39483 36.9392C6.94301 37.4334 7.53534 38.5469 7.50136 39.5859Z" fill="url(#paint0_linear_0_62)" fill-opacity="0.8"/>
</g>
<defs>
<linearGradient id="paint0_linear_0_62" x1="-0.748651" y1="64.2222" x2="68.9653" y2="124.427" gradientUnits="userSpaceOnUse">
<stop stop-color="#0F49D2"/>
<stop offset="0.3125" stop-color="#0393FF"/>
</linearGradient>
</defs>
</svg>
