<svg preserveAspectRatio="none" width="100%" height="100%" overflow="visible" style="display: block;" viewBox="0 0 30.6304 26.385" fill="none" xmlns="http://www.w3.org/2000/svg">
<g id="Frame 186">
<path id="Vector 1" d="M23.6557 5.12299C22.7299 4.16347 20.598 2.09796 19.477 1.51213C15.3695 7.0964 7.65318 18.0617 9.64794 17.2487C11.6427 16.4357 19.8176 8.82616 23.6557 5.12299Z" fill="var(--fill-0, #E4C178)" stroke="var(--stroke-0, black)"/>
<path id="Vector 3" d="M30.0245 23.2455C29.7903 22.3045 29.2018 20.2276 28.7212 19.4479C24.3174 21.4182 15.8821 25.416 17.3715 25.645C18.8609 25.8739 26.4274 24.1407 30.0245 23.2455Z" fill="var(--fill-0, #E4C178)" stroke="var(--stroke-0, black)"/>
<path id="Vector 2" d="M7.43331 1.27114C6.50129 1.00345 4.40837 0.474634 3.49281 0.500917C2.99724 5.29991 2.24184 14.604 3.18478 13.4286C4.12772 12.2532 6.41002 4.83388 7.43331 1.27114Z" fill="var(--fill-0, #E4C178)" stroke="var(--stroke-0, black)"/>
</g>
</svg>
