<svg preserveAspectRatio="none" width="100%" height="100%" overflow="visible" style="display: block;" viewBox="0 0 445.437 59.8652" fill="none" xmlns="http://www.w3.org/2000/svg">
<g id="Vector 68" opacity="0.6">
<path d="M0 27.2849C0.0986907 28.2293 0.507155 29.1349 1.20063 29.8027C1.89356 30.4704 2.80552 30.8455 3.75 30.8455C4.69448 30.8455 5.60644 30.4704 6.29937 29.8027C6.99285 29.1349 7.40131 28.2293 7.5 27.2849C7.5 27.2849 7.5 27.2849 7.5 27.2849C7.48481 28.2356 7.22425 28.6981 7.08216 28.9919C6.99426 29.1546 6.96334 29.1995 6.92602 29.2596C6.89 29.3161 6.85811 29.3627 6.83 29.4025C6.71544 29.5621 6.67028 29.6115 6.65568 29.6371C6.61871 29.6922 6.6574 29.6709 6.70425 29.6489C6.81239 29.5909 6.97939 29.4939 7.14557 29.4031C7.51014 29.1979 7.89383 28.9961 8.31222 28.778C9.13908 28.3496 10.0001 27.9277 10.876 27.5079C12.6465 26.6588 14.4193 25.8549 16.232 25.0475C19.8514 23.439 23.5007 21.8959 27.1709 20.3821C31.7148 18.5095 36.2802 16.6924 40.8652 14.9146C41.5686 14.6583 42.1352 14.7307 41.6011 14.8543C41.344 14.9035 40.7374 14.8622 40.1681 14.6144C39.5927 14.3748 39.1934 14.0186 39.0366 13.8791C38.7323 13.5735 38.9675 14.0703 39.0653 14.8289C39.1878 15.5971 39.2852 16.6139 39.3429 17.7158C39.695 23.0957 40.0206 28.4804 40.5404 34.055C40.8096 36.8533 41.1116 39.6713 41.6467 42.7453C41.9251 44.2972 42.2386 45.8689 42.8073 47.7434C43.5319 49.6233 43.6715 51.6754 47.2101 55.3431C51.2422 58.7326 53.7944 58.665 55.7141 59.0951C57.6572 59.3786 59.1819 59.4274 60.6259 59.4584C63.4854 59.5005 65.9446 59.392 68.3442 59.3172C76.5212 58.8103 82.3068 57.0801 88.5375 55.5429C95.7579 53.6532 102.758 51.6909 109.773 49.823C118.071 47.5898 126.418 46.2346 135.101 45.5771C144.684 44.8476 154.577 45.0503 164.373 45.9083C174.392 46.7862 184.428 48.4932 194.607 50.5543C204.741 52.5942 214.936 54.989 225.558 57.0227C235.512 59.0469 246.344 59.8085 256.237 59.852C273.644 59.9732 290.798 59.2551 308.045 57.8662C325.279 56.4492 342.409 54.1103 359.338 51.0314C373.574 48.4498 387.776 45.3273 401.741 41.3209C408.005 39.5253 414.193 37.5685 420.338 35.4859C424.785 33.9771 429.21 32.4037 433.606 30.7518C436.821 29.5009 440.023 28.4392 443.484 26.5137C444.335 26.0316 444.982 25.2444 445.271 24.304C445.56 23.3639 445.47 22.3511 445.018 21.4845C444.566 20.618 443.788 19.9643 442.851 19.6633C441.915 19.362 440.899 19.4416 440.016 19.8634C440.016 19.8634 440.016 19.8634 440.016 19.8634C437.472 21.0836 434.159 22.0084 430.979 22.992C426.58 24.315 422.136 25.5732 417.689 26.7683C411.543 28.4184 405.379 29.9495 399.197 31.3208C385.41 34.3825 371.453 36.6327 357.388 38.4259C340.655 40.5666 323.893 42.0411 307.116 42.699C290.332 43.3319 273.36 43.3913 256.692 42.7204C247.031 42.3307 238.321 41.4602 229.144 39.3575C219.178 37.1673 208.955 34.5066 198.53 32.1713C188.05 29.8144 177.257 27.7549 166.236 26.6173C155.494 25.5144 144.682 25.1358 133.677 25.863C124.022 26.4934 114.133 28.0197 104.667 30.5335C97.523 32.4041 90.4302 34.3747 83.4946 36.1891C77.7455 37.6734 71.5393 39.2914 67.3739 39.6368C64.9442 39.7939 62.5822 39.973 60.6033 40.0306C59.6324 40.061 58.7356 40.045 58.2816 40.0114C58.0647 40.0006 57.9636 39.9748 58.1851 40.0597C58.3904 40.1594 59.0392 40.3364 60.0872 41.2897C60.9963 42.1964 60.9775 42.466 60.975 42.454C60.9429 42.4405 60.8042 42.1723 60.6689 41.8271C60.384 41.1072 60.0792 40.0755 59.8007 38.9683C59.2399 36.7327 58.7542 34.2052 58.2881 31.6401C57.3609 26.4861 56.4968 21.1204 55.5312 15.7442C54.8415 12.6234 54.756 9.35051 51.1588 4.4606C49.3767 1.9689 44.923 -0.253322 41.709 0.0233712C38.4822 0.146379 36.4967 1.11879 34.7704 1.99604C30.3465 4.46914 25.985 7.0344 21.6824 9.71086C18.2061 11.8746 14.7791 14.1016 11.3826 16.4453C9.67913 17.6217 8.02163 18.8035 6.32879 20.0689C5.48961 20.6984 4.66271 21.3345 3.81092 22.0233C3.37438 22.376 2.97391 22.711 2.49951 23.1247C2.39482 23.2181 2.26711 23.3305 2.14404 23.4428C2.02331 23.5535 1.90355 23.6654 1.75262 23.8101C1.68091 23.8794 1.61106 23.9488 1.53843 24.0233C1.44402 24.1175 1.34885 24.2164 1.2482 24.3281C1.16159 24.4266 1.0098 24.5912 0.823053 24.8469C0.776717 24.9107 0.72822 24.9805 0.677217 25.0593C0.62501 25.1418 0.581308 25.2058 0.472299 25.4068C0.29397 25.7675 0.0151894 26.2871 0 27.2849Z" fill="var(--stroke-0, white)"/>
<path d="M0 27.2849C0.0986907 28.2293 0.507155 29.1349 1.20063 29.8027C1.89356 30.4704 2.80552 30.8455 3.75 30.8455C4.69448 30.8455 5.60644 30.4704 6.29937 29.8027C6.99285 29.1349 7.40131 28.2293 7.5 27.2849C7.5 27.2849 7.5 27.2849 7.5 27.2849C7.48481 28.2356 7.22425 28.6981 7.08216 28.9919C6.99426 29.1546 6.96334 29.1995 6.92602 29.2596C6.89 29.3161 6.85811 29.3627 6.83 29.4025C6.71544 29.5621 6.67028 29.6115 6.65568 29.6371C6.61871 29.6922 6.6574 29.6709 6.70425 29.6489C6.81239 29.5909 6.97939 29.4939 7.14557 29.4031C7.51014 29.1979 7.89383 28.9961 8.31222 28.778C9.13908 28.3496 10.0001 27.9277 10.876 27.5079C12.6465 26.6588 14.4193 25.8549 16.232 25.0475C19.8514 23.439 23.5007 21.8959 27.1709 20.3821C31.7148 18.5095 36.2802 16.6924 40.8652 14.9146C41.5686 14.6583 42.1352 14.7307 41.6011 14.8543C41.344 14.9035 40.7374 14.8622 40.1681 14.6144C39.5927 14.3748 39.1934 14.0186 39.0366 13.8791C38.7323 13.5735 38.9675 14.0703 39.0653 14.8289C39.1878 15.5971 39.2852 16.6139 39.3429 17.7158C39.695 23.0957 40.0206 28.4804 40.5404 34.055C40.8096 36.8533 41.1116 39.6713 41.6467 42.7453C41.9251 44.2972 42.2386 45.8689 42.8073 47.7434C43.5319 49.6233 43.6715 51.6754 47.2101 55.3431C51.2422 58.7326 53.7944 58.665 55.7141 59.0951C57.6572 59.3786 59.1819 59.4274 60.6259 59.4584C63.4854 59.5005 65.9446 59.392 68.3442 59.3172C76.5212 58.8103 82.3068 57.0801 88.5375 55.5429C95.7579 53.6532 102.758 51.6909 109.773 49.823C118.071 47.5898 126.418 46.2346 135.101 45.5771C144.684 44.8476 154.577 45.0503 164.373 45.9083C174.392 46.7862 184.428 48.4932 194.607 50.5543C204.741 52.5942 214.936 54.989 225.558 57.0227C235.512 59.0469 246.344 59.8085 256.237 59.852C273.644 59.9732 290.798 59.2551 308.045 57.8662C325.279 56.4492 342.409 54.1103 359.338 51.0314C373.574 48.4498 387.776 45.3273 401.741 41.3209C408.005 39.5253 414.193 37.5685 420.338 35.4859C424.785 33.9771 429.21 32.4037 433.606 30.7518C436.821 29.5009 440.023 28.4392 443.484 26.5137C444.335 26.0316 444.982 25.2444 445.271 24.304C445.56 23.3639 445.47 22.3511 445.018 21.4845C444.566 20.618 443.788 19.9643 442.851 19.6633C441.915 19.362 440.899 19.4416 440.016 19.8634C440.016 19.8634 440.016 19.8634 440.016 19.8634C437.472 21.0836 434.159 22.0084 430.979 22.992C426.58 24.315 422.136 25.5732 417.689 26.7683C411.543 28.4184 405.379 29.9495 399.197 31.3208C385.41 34.3825 371.453 36.6327 357.388 38.4259C340.655 40.5666 323.893 42.0411 307.116 42.699C290.332 43.3319 273.36 43.3913 256.692 42.7204C247.031 42.3307 238.321 41.4602 229.144 39.3575C219.178 37.1673 208.955 34.5066 198.53 32.1713C188.05 29.8144 177.257 27.7549 166.236 26.6173C155.494 25.5144 144.682 25.1358 133.677 25.863C124.022 26.4934 114.133 28.0197 104.667 30.5335C97.523 32.4041 90.4302 34.3747 83.4946 36.1891C77.7455 37.6734 71.5393 39.2914 67.3739 39.6368C64.9442 39.7939 62.5822 39.973 60.6033 40.0306C59.6324 40.061 58.7356 40.045 58.2816 40.0114C58.0647 40.0006 57.9636 39.9748 58.1851 40.0597C58.3904 40.1594 59.0392 40.3364 60.0872 41.2897C60.9963 42.1964 60.9775 42.466 60.975 42.454C60.9429 42.4405 60.8042 42.1723 60.6689 41.8271C60.384 41.1072 60.0792 40.0755 59.8007 38.9683C59.2399 36.7327 58.7542 34.2052 58.2881 31.6401C57.3609 26.4861 56.4968 21.1204 55.5312 15.7442C54.8415 12.6234 54.756 9.35051 51.1588 4.4606C49.3767 1.9689 44.923 -0.253322 41.709 0.0233712C38.4822 0.146379 36.4967 1.11879 34.7704 1.99604C30.3465 4.46914 25.985 7.0344 21.6824 9.71086C18.2061 11.8746 14.7791 14.1016 11.3826 16.4453C9.67913 17.6217 8.02163 18.8035 6.32879 20.0689C5.48961 20.6984 4.66271 21.3345 3.81092 22.0233C3.37438 22.376 2.97391 22.711 2.49951 23.1247C2.39482 23.2181 2.26711 23.3305 2.14404 23.4428C2.02331 23.5535 1.90355 23.6654 1.75262 23.8101C1.68091 23.8794 1.61106 23.9488 1.53843 24.0233C1.44402 24.1175 1.34885 24.2164 1.2482 24.3281C1.16159 24.4266 1.0098 24.5912 0.823053 24.8469C0.776717 24.9107 0.72822 24.9805 0.677217 25.0593C0.62501 25.1418 0.581308 25.2058 0.472299 25.4068C0.29397 25.7675 0.0151894 26.2871 0 27.2849Z" fill="url(#paint0_linear_0_14)" fill-opacity="0.8"/>
</g>
<defs>
<linearGradient id="paint0_linear_0_14" x1="-2.88638" y1="81.3832" x2="83.1644" y2="171.051" gradientUnits="userSpaceOnUse">
<stop stop-color="#0F49D2"/>
<stop offset="0.3125" stop-color="#0393FF"/>
</linearGradient>
</defs>
</svg>
