<svg preserveAspectRatio="none" width="100%" height="100%" overflow="visible" style="display: block;" viewBox="0 0 39 42" fill="none" xmlns="http://www.w3.org/2000/svg">
<g id="Vector">
<path d="M38.1234 12.8812C37.8454 12.6012 37.5145 12.3791 37.15 12.2278C36.7855 12.0766 36.3946 11.9991 36 12H30V10.5C30 7.71523 28.8938 5.04451 26.9246 3.07538C24.9555 1.10625 22.2848 0 19.5 0C16.7152 0 14.0445 1.10625 12.0754 3.07538C10.1062 5.04451 9 7.71523 9 10.5V12H3C2.20435 12 1.44129 12.3161 0.87868 12.8787C0.31607 13.4413 0 14.2044 0 15V35.25C0 38.9062 3.09375 42 6.75 42H32.25C34.0186 42.0006 35.7172 41.3091 36.9825 40.0734C37.6193 39.466 38.1263 38.7357 38.4731 37.9269C38.8198 37.118 38.9991 36.2472 39 35.3672V15C39.0012 14.6064 38.9244 14.2165 38.7739 13.8528C38.6235 13.4892 38.4024 13.1589 38.1234 12.8812ZM12 10.5C12 8.51088 12.7902 6.60322 14.1967 5.1967C15.6032 3.79018 17.5109 3 19.5 3C21.4891 3 23.3968 3.79018 24.8033 5.1967C26.2098 6.60322 27 8.51088 27 10.5V12H12V10.5Z" fill="var(--fill-0, black)"/>
<path d="M38.1234 12.8812C37.8454 12.6012 37.5145 12.3791 37.15 12.2278C36.7855 12.0766 36.3946 11.9991 36 12H30V10.5C30 7.71523 28.8938 5.04451 26.9246 3.07538C24.9555 1.10625 22.2848 0 19.5 0C16.7152 0 14.0445 1.10625 12.0754 3.07538C10.1062 5.04451 9 7.71523 9 10.5V12H3C2.20435 12 1.44129 12.3161 0.87868 12.8787C0.31607 13.4413 0 14.2044 0 15V35.25C0 38.9062 3.09375 42 6.75 42H32.25C34.0186 42.0006 35.7172 41.3091 36.9825 40.0734C37.6193 39.466 38.1263 38.7357 38.4731 37.9269C38.8198 37.118 38.9991 36.2472 39 35.3672V15C39.0012 14.6064 38.9244 14.2165 38.7739 13.8528C38.6235 13.4892 38.4024 13.1589 38.1234 12.8812ZM12 10.5C12 8.51088 12.7902 6.60322 14.1967 5.1967C15.6032 3.79018 17.5109 3 19.5 3C21.4891 3 23.3968 3.79018 24.8033 5.1967C26.2098 6.60322 27 8.51088 27 10.5V12H12V10.5Z" fill="url(#paint0_linear_0_56)"/>
</g>
<defs>
<linearGradient id="paint0_linear_0_56" x1="19.5" y1="7.28146" x2="19.5" y2="42.0003" gradientUnits="userSpaceOnUse">
<stop stop-color="#1C92FF"/>
<stop offset="1" stop-color="#2464FD"/>
</linearGradient>
</defs>
</svg>
