<svg width="48" height="48" viewBox="0 0 48 48" fill="none" xmlns="http://www.w3.org/2000/svg">
<path d="M42.6234 15.8812C42.3454 15.6012 42.0145 15.3791 41.65 15.2278C41.2855 15.0766 40.8946 14.9991 40.5 15H34.5V13.5C34.5 10.7152 33.3938 8.04451 31.4246 6.07538C29.4555 4.10625 26.7848 3 24 3C21.2152 3 18.5445 4.10625 16.5754 6.07538C14.6062 8.04451 13.5 10.7152 13.5 13.5V15H7.5C6.70435 15 5.94129 15.3161 5.37868 15.8787C4.81607 16.4413 4.5 17.2044 4.5 18V38.25C4.5 41.9062 7.59375 45 11.25 45H36.75C38.5186 45.0006 40.2172 44.3091 41.4825 43.0734C42.1193 42.466 42.6263 41.7357 42.9731 40.9269C43.3198 40.118 43.4991 39.2472 43.5 38.3672V18C43.5012 17.6064 43.4244 17.2165 43.2739 16.8528C43.1235 16.4892 42.9024 16.1589 42.6234 15.8812ZM16.5 13.5C16.5 11.5109 17.2902 9.60322 18.6967 8.1967C20.1032 6.79018 22.0109 6 24 6C25.9891 6 27.8968 6.79018 29.3033 8.1967C30.7098 9.60322 31.5 11.5109 31.5 13.5V15H16.5V13.5Z" fill="black"/>
<path d="M42.6234 15.8812C42.3454 15.6012 42.0145 15.3791 41.65 15.2278C41.2855 15.0766 40.8946 14.9991 40.5 15H34.5V13.5C34.5 10.7152 33.3938 8.04451 31.4246 6.07538C29.4555 4.10625 26.7848 3 24 3C21.2152 3 18.5445 4.10625 16.5754 6.07538C14.6062 8.04451 13.5 10.7152 13.5 13.5V15H7.5C6.70435 15 5.94129 15.3161 5.37868 15.8787C4.81607 16.4413 4.5 17.2044 4.5 18V38.25C4.5 41.9062 7.59375 45 11.25 45H36.75C38.5186 45.0006 40.2172 44.3091 41.4825 43.0734C42.1193 42.466 42.6263 41.7357 42.9731 40.9269C43.3198 40.118 43.4991 39.2472 43.5 38.3672V18C43.5012 17.6064 43.4244 17.2165 43.2739 16.8528C43.1235 16.4892 42.9024 16.1589 42.6234 15.8812ZM16.5 13.5C16.5 11.5109 17.2902 9.60322 18.6967 8.1967C20.1032 6.79018 22.0109 6 24 6C25.9891 6 27.8968 6.79018 29.3033 8.1967C30.7098 9.60322 31.5 11.5109 31.5 13.5V15H16.5V13.5Z" fill="url(#paint0_linear_963_151)"/>
<defs>
<linearGradient id="paint0_linear_963_151" x1="24" y1="10.2815" x2="24" y2="45.0003" gradientUnits="userSpaceOnUse">
<stop stop-color="#1C92FF"/>
<stop offset="1" stop-color="#2464FD"/>
</linearGradient>
</defs>
</svg>
