<svg width="48" height="48" viewBox="0 0 48 48" fill="none" xmlns="http://www.w3.org/2000/svg">
<path d="M35.6598 2.70337C35.6599 2.70337 35.6599 2.70339 35.6599 2.70341L33.879 9.25527C33.5084 10.6187 31.8793 11.1784 30.749 10.3307L28.0207 8.28441C27.4916 7.88761 27.3234 7.16846 27.6215 6.57815C28.106 5.61898 27.3427 4.5023 26.2731 4.60534L22.1878 4.9989C21.3918 5.07559 20.7179 5.61916 20.4745 6.38097L20.3412 6.79816C19.9783 7.93404 18.6131 8.38579 17.6442 7.69058C16.8799 7.14209 15.819 7.29333 15.2384 8.03359L10.2156 14.437C10.0604 14.6348 9.86932 14.8016 9.65234 14.9286L3.45679 18.5555C2.70709 18.9944 2.32643 19.867 2.51476 20.7151L5.16993 32.6715C5.34657 33.4669 5.98806 34.0756 6.79162 34.2104L8.40263 34.4805C8.85765 34.5568 9.32507 34.4735 9.72566 34.2446L18.5054 29.2276C19.1774 28.8435 20.0108 28.8818 20.6448 29.3258L25.5919 32.7898C26.1443 33.1766 26.9033 33.0603 27.3146 32.5259C27.8974 31.7684 29.0782 31.9095 29.4663 32.7829L31.1687 36.6138C31.4418 37.2285 32.0057 37.6647 32.6693 37.7747L38.3072 38.7092C39.1666 38.8516 40.0193 38.4215 40.4154 37.6457L45.5377 27.6154C45.7101 27.2778 45.783 26.8981 45.748 26.5207L45.2948 21.6454C45.2577 21.2461 45.1014 20.8672 44.8463 20.5579L39.3532 13.8979C39.1901 13.7002 39.0665 13.4729 38.9892 13.2285L35.6598 2.70342C35.6598 2.70339 35.6598 2.70337 35.6598 2.70337ZM34.277 41.2569C34.277 41.2569 34.2771 41.257 34.2771 41.257L35.3448 44.3035C35.5487 44.8855 36.1254 45.2514 36.7387 45.1881C37.2656 45.1337 37.7102 44.7723 37.8712 44.2676L37.9799 43.9264C38.3408 42.7946 37.574 41.616 36.393 41.4874L34.277 41.2569Z" fill="black"/>
<path d="M35.6598 2.70337C35.6599 2.70337 35.6599 2.70339 35.6599 2.70341L33.879 9.25527C33.5084 10.6187 31.8793 11.1784 30.749 10.3307L28.0207 8.28441C27.4916 7.88761 27.3234 7.16846 27.6215 6.57815C28.106 5.61898 27.3427 4.5023 26.2731 4.60534L22.1878 4.9989C21.3918 5.07559 20.7179 5.61916 20.4745 6.38097L20.3412 6.79816C19.9783 7.93404 18.6131 8.38579 17.6442 7.69058C16.8799 7.14209 15.819 7.29333 15.2384 8.03359L10.2156 14.437C10.0604 14.6348 9.86932 14.8016 9.65234 14.9286L3.45679 18.5555C2.70709 18.9944 2.32643 19.867 2.51476 20.7151L5.16993 32.6715C5.34657 33.4669 5.98806 34.0756 6.79162 34.2104L8.40263 34.4805C8.85765 34.5568 9.32507 34.4735 9.72566 34.2446L18.5054 29.2276C19.1774 28.8435 20.0108 28.8818 20.6448 29.3258L25.5919 32.7898C26.1443 33.1766 26.9033 33.0603 27.3146 32.5259C27.8974 31.7684 29.0782 31.9095 29.4663 32.7829L31.1687 36.6138C31.4418 37.2285 32.0057 37.6647 32.6693 37.7747L38.3072 38.7092C39.1666 38.8516 40.0193 38.4215 40.4154 37.6457L45.5377 27.6154C45.7101 27.2778 45.783 26.8981 45.748 26.5207L45.2948 21.6454C45.2577 21.2461 45.1014 20.8672 44.8463 20.5579L39.3532 13.8979C39.1901 13.7002 39.0665 13.4729 38.9892 13.2285L35.6598 2.70342C35.6598 2.70339 35.6598 2.70337 35.6598 2.70337ZM34.277 41.2569C34.277 41.2569 34.2771 41.257 34.2771 41.257L35.3448 44.3035C35.5487 44.8855 36.1254 45.2514 36.7387 45.1881C37.2656 45.1337 37.7102 44.7723 37.8712 44.2676L37.9799 43.9264C38.3408 42.7946 37.574 41.616 36.393 41.4874L34.277 41.2569Z" fill="url(#paint0_linear_963_3)"/>
<path d="M24.702 14.1946L31.702 16.8196C32.0833 16.9626 32.4119 17.2185 32.6438 17.5532C32.8758 17.8879 33.0001 18.2854 33 18.6926V24.0556C33 25.7271 32.5346 27.3655 31.6559 28.7873C30.7772 30.2091 29.52 31.3581 28.025 32.1056L24.671 33.7816C24.4627 33.8858 24.2329 33.9401 24 33.9401C23.7671 33.9401 23.5373 33.8858 23.329 33.7816L19.975 32.1046C18.48 31.3571 17.2228 30.2081 16.3441 28.7863C15.4654 27.3645 15 25.7261 15 24.0546V18.6936C14.9997 18.2862 15.1239 17.8885 15.3559 17.5536C15.5878 17.2187 15.9165 16.9626 16.298 16.8196L23.298 14.1946C23.7506 14.025 24.2494 14.025 24.702 14.1946ZM24 19.9996C23.7551 19.9997 23.5187 20.0896 23.3356 20.2523C23.1526 20.4151 23.0357 20.6394 23.007 20.8826L23 20.9996V22.9996H21C20.7451 22.9999 20.5 23.0975 20.3146 23.2725C20.1293 23.4474 20.0178 23.6866 20.0028 23.941C19.9879 24.1955 20.0707 24.446 20.2343 24.6415C20.3979 24.8369 20.6299 24.9625 20.883 24.9926L21 24.9996H23V26.9996C23.0003 27.2545 23.0979 27.4997 23.2728 27.685C23.4478 27.8703 23.687 27.9819 23.9414 27.9968C24.1958 28.0117 24.4464 27.929 24.6418 27.7654C24.8373 27.6018 24.9629 27.3697 24.993 27.1166L25 26.9996V24.9996H27C27.2549 24.9993 27.5 24.9018 27.6854 24.7268C27.8707 24.5518 27.9822 24.3127 27.9972 24.0582C28.0121 23.8038 27.9293 23.5533 27.7657 23.3578C27.6021 23.1623 27.3701 23.0367 27.117 23.0066L27 22.9996H25V20.9996C25 20.7344 24.8946 20.4801 24.7071 20.2925C24.5196 20.105 24.2652 19.9996 24 19.9996Z" fill="#B9D5FF"/>
<defs>
<linearGradient id="paint0_linear_963_3" x1="24.0002" y1="10.0876" x2="23.9999" y2="61.2" gradientUnits="userSpaceOnUse">
<stop stop-color="#1C92FF"/>
<stop offset="1" stop-color="#022A8B"/>
</linearGradient>
</defs>
</svg>
