<svg preserveAspectRatio="none" width="100%" height="100%" overflow="visible" style="display: block;" viewBox="0 0 41.4 39.6647" fill="none" xmlns="http://www.w3.org/2000/svg">
<g id="Vector">
<path d="M32.9388 1.85629C30.2376 -0.844311 25.779 -0.560512 23.4432 2.46169L14.8986 13.5149L21.2826 19.8983L32.3346 11.3513C35.3556 9.01489 35.6394 4.55689 32.9388 1.85629ZM19.368 21.3785L13.4184 15.4289L12.306 16.8689C12.2046 17 12.1544 17.1636 12.1649 17.329C12.1754 17.4945 12.2458 17.6504 12.363 17.7677L12.402 17.8061C12.3237 17.7284 12.2274 17.6711 12.1217 17.6394C12.016 17.6077 11.9042 17.6025 11.796 17.6243L9.1182 18.1601C8.10824 18.3622 7.17068 18.8307 6.40259 19.5169C5.6345 20.2031 5.06381 21.0822 4.7496 22.0631L2.0418 30.5255C1.8444 31.1411 2.6076 31.3379 3.0648 30.8813L8.2146 25.7309C8.5146 25.4309 8.595 24.9845 8.6706 24.5603L8.6958 24.4229C8.703 24.3849 8.7118 24.3469 8.7222 24.3089C9.009 23.2379 10.347 22.8791 11.1312 23.6633C11.9154 24.4475 11.556 25.7855 10.4856 26.0723C10.4477 26.0821 10.4095 26.0907 10.371 26.0981L10.2342 26.1233C9.81 26.1989 9.3642 26.2793 9.063 26.5793L3.9132 31.7297C3.456 32.1863 3.6528 32.9495 4.2684 32.7527L12.7308 30.0449C13.7118 29.7308 14.591 29.1601 15.2773 28.392C15.9637 27.6239 16.4322 26.6863 16.6344 25.6763L17.1696 22.9979C17.1914 22.8897 17.1862 22.7778 17.1545 22.6722C17.1228 22.5665 17.0655 22.4702 16.9878 22.3919L17.0298 22.4339C17.147 22.5513 17.303 22.6219 17.4686 22.6326C17.6342 22.6432 17.798 22.593 17.9292 22.4915L19.368 21.3785ZM31.8684 34.4357L29.85 28.8077L27.3096 35.8901C26.913 36.995 26.185 37.9506 25.2249 38.6262C24.2648 39.3018 23.1196 39.6645 21.9456 39.6647H21.519C20.0604 39.6647 18.6468 39.1589 17.5194 38.2337L15.4134 36.5057L13.311 38.2313C12.1817 39.1583 10.7658 39.6649 9.3048 39.6647H1.5C1.10217 39.6647 0.720644 39.5067 0.43934 39.2253C0.158035 38.944 0 38.5625 0 38.1647C0 37.7669 0.158035 37.3853 0.43934 37.104C0.720644 36.8227 1.10217 36.6647 1.5 36.6647H9.3048C10.0718 36.665 10.8151 36.399 11.4078 35.9123L13.6758 34.0505C14.1657 33.6483 14.7799 33.4285 15.4137 33.4285C16.0475 33.4285 16.6617 33.6483 17.1516 34.0505L19.4226 35.9147C20.0134 36.4 20.7544 36.6651 21.519 36.6647H21.945C22.501 36.6645 23.0434 36.4927 23.4981 36.1726C23.9528 35.8526 24.2976 35.4 24.4854 34.8767L28.1154 24.7583C28.6992 23.1305 31.0008 23.1305 31.5846 24.7583L34.6926 33.4223C35.0332 34.3714 35.6585 35.1923 36.4832 35.7726C37.3079 36.3529 38.2916 36.6645 39.3 36.6647H39.9C40.2978 36.6647 40.6794 36.8227 40.9607 37.104C41.242 37.3853 41.4 37.7669 41.4 38.1647C41.4 38.5625 41.242 38.944 40.9607 39.2253C40.6794 39.5067 40.2978 39.6647 39.9 39.6647H39.3C37.6735 39.6646 36.0867 39.1622 34.7565 38.2261C33.4263 37.2901 32.4177 35.9667 31.8684 34.4357Z" fill="var(--fill-0, black)"/>
<path d="M32.9388 1.85629C30.2376 -0.844311 25.779 -0.560512 23.4432 2.46169L14.8986 13.5149L21.2826 19.8983L32.3346 11.3513C35.3556 9.01489 35.6394 4.55689 32.9388 1.85629ZM19.368 21.3785L13.4184 15.4289L12.306 16.8689C12.2046 17 12.1544 17.1636 12.1649 17.329C12.1754 17.4945 12.2458 17.6504 12.363 17.7677L12.402 17.8061C12.3237 17.7284 12.2274 17.6711 12.1217 17.6394C12.016 17.6077 11.9042 17.6025 11.796 17.6243L9.1182 18.1601C8.10824 18.3622 7.17068 18.8307 6.40259 19.5169C5.6345 20.2031 5.06381 21.0822 4.7496 22.0631L2.0418 30.5255C1.8444 31.1411 2.6076 31.3379 3.0648 30.8813L8.2146 25.7309C8.5146 25.4309 8.595 24.9845 8.6706 24.5603L8.6958 24.4229C8.703 24.3849 8.7118 24.3469 8.7222 24.3089C9.009 23.2379 10.347 22.8791 11.1312 23.6633C11.9154 24.4475 11.556 25.7855 10.4856 26.0723C10.4477 26.0821 10.4095 26.0907 10.371 26.0981L10.2342 26.1233C9.81 26.1989 9.3642 26.2793 9.063 26.5793L3.9132 31.7297C3.456 32.1863 3.6528 32.9495 4.2684 32.7527L12.7308 30.0449C13.7118 29.7308 14.591 29.1601 15.2773 28.392C15.9637 27.6239 16.4322 26.6863 16.6344 25.6763L17.1696 22.9979C17.1914 22.8897 17.1862 22.7778 17.1545 22.6722C17.1228 22.5665 17.0655 22.4702 16.9878 22.3919L17.0298 22.4339C17.147 22.5513 17.303 22.6219 17.4686 22.6326C17.6342 22.6432 17.798 22.593 17.9292 22.4915L19.368 21.3785ZM31.8684 34.4357L29.85 28.8077L27.3096 35.8901C26.913 36.995 26.185 37.9506 25.2249 38.6262C24.2648 39.3018 23.1196 39.6645 21.9456 39.6647H21.519C20.0604 39.6647 18.6468 39.1589 17.5194 38.2337L15.4134 36.5057L13.311 38.2313C12.1817 39.1583 10.7658 39.6649 9.3048 39.6647H1.5C1.10217 39.6647 0.720644 39.5067 0.43934 39.2253C0.158035 38.944 0 38.5625 0 38.1647C0 37.7669 0.158035 37.3853 0.43934 37.104C0.720644 36.8227 1.10217 36.6647 1.5 36.6647H9.3048C10.0718 36.665 10.8151 36.399 11.4078 35.9123L13.6758 34.0505C14.1657 33.6483 14.7799 33.4285 15.4137 33.4285C16.0475 33.4285 16.6617 33.6483 17.1516 34.0505L19.4226 35.9147C20.0134 36.4 20.7544 36.6651 21.519 36.6647H21.945C22.501 36.6645 23.0434 36.4927 23.4981 36.1726C23.9528 35.8526 24.2976 35.4 24.4854 34.8767L28.1154 24.7583C28.6992 23.1305 31.0008 23.1305 31.5846 24.7583L34.6926 33.4223C35.0332 34.3714 35.6585 35.1923 36.4832 35.7726C37.3079 36.3529 38.2916 36.6645 39.3 36.6647H39.9C40.2978 36.6647 40.6794 36.8227 40.9607 37.104C41.242 37.3853 41.4 37.7669 41.4 38.1647C41.4 38.5625 41.242 38.944 40.9607 39.2253C40.6794 39.5067 40.2978 39.6647 39.9 39.6647H39.3C37.6735 39.6646 36.0867 39.1622 34.7565 38.2261C33.4263 37.2901 32.4177 35.9667 31.8684 34.4357Z" fill="url(#paint0_linear_0_23)"/>
</g>
<defs>
<linearGradient id="paint0_linear_0_23" x1="20.7" y1="6.87659" x2="20.7" y2="39.665" gradientUnits="userSpaceOnUse">
<stop stop-color="#1C92FF"/>
<stop offset="1" stop-color="#2464FD"/>
</linearGradient>
</defs>
</svg>
