<svg width="48" height="48" viewBox="0 0 48 48" fill="none" xmlns="http://www.w3.org/2000/svg">
<path d="M36.5726 6.89144C33.8714 4.19084 29.4128 4.47464 27.077 7.49684L18.5324 18.55L24.9164 24.9334L35.9684 16.3864C38.9894 14.05 39.2732 9.59204 36.5726 6.89144ZM23.0018 26.4136L17.0522 20.464L15.9398 21.904C15.8384 22.0352 15.7882 22.1988 15.7987 22.3642C15.8092 22.5296 15.8796 22.6856 15.9968 22.8028L16.0358 22.8412C15.9575 22.7635 15.8612 22.7063 15.7555 22.6746C15.6498 22.6429 15.538 22.6377 15.4298 22.6594L12.752 23.1952C11.742 23.3974 10.8045 23.8658 10.0364 24.5521C9.26829 25.2383 8.6976 26.1174 8.38339 27.0982L5.67559 35.5606C5.47819 36.1762 6.24139 36.373 6.69859 35.9164L11.8484 30.766C12.1484 30.466 12.2288 30.0196 12.3044 29.5954L12.3296 29.458C12.3368 29.42 12.3456 29.382 12.356 29.344C12.6428 28.273 13.9808 27.9142 14.765 28.6984C15.5492 29.4826 15.1898 30.8206 14.1194 31.1074C14.0815 31.1173 14.0433 31.1259 14.0048 31.1332L13.868 31.1584C13.4438 31.234 12.998 31.3144 12.6968 31.6144L7.54699 36.7648C7.08979 37.2214 7.28659 37.9846 7.90219 37.7878L16.3646 35.08C17.3456 34.7659 18.2248 34.1953 18.9111 33.4272C19.5975 32.6591 20.066 31.7215 20.2682 30.7114L20.8034 28.033C20.8252 27.9249 20.82 27.813 20.7883 27.7073C20.7566 27.6016 20.6993 27.5054 20.6216 27.427L20.6636 27.469C20.7808 27.5865 20.9368 27.6571 21.1024 27.6677C21.268 27.6783 21.4317 27.6282 21.563 27.5266L23.0018 26.4136ZM35.5022 39.4708L33.4838 33.8428L30.9434 40.9252C30.5468 42.0302 29.8188 42.9858 28.8587 43.6614C27.8986 44.337 26.7534 44.6996 25.5794 44.6998H25.1528C23.6942 44.6998 22.2806 44.194 21.1532 43.2688L19.0472 41.5408L16.9448 43.2664C15.8155 44.1935 14.3996 44.7001 12.9386 44.6998H5.13379C4.73596 44.6998 4.35443 44.5418 4.07313 44.2605C3.79182 43.9792 3.63379 43.5977 3.63379 43.1998C3.63379 42.802 3.79182 42.4205 4.07313 42.1392C4.35443 41.8579 4.73596 41.6998 5.13379 41.6998H12.9386C13.7056 41.7001 14.4489 41.4342 15.0416 40.9474L17.3096 39.0856C17.7995 38.6835 18.4137 38.4637 19.0475 38.4637C19.6813 38.4637 20.2955 38.6835 20.7854 39.0856L23.0564 40.9498C23.6472 41.4352 24.3882 41.7003 25.1528 41.6998H25.5788C26.1348 41.6997 26.6772 41.5278 27.1319 41.2078C27.5866 40.8878 27.9314 40.4352 28.1192 39.9118L31.7492 29.7934C32.333 28.1656 34.6346 28.1656 35.2184 29.7934L38.3264 38.4574C38.667 39.4066 39.2923 40.2274 40.117 40.8078C40.9416 41.3881 41.9254 41.6997 42.9338 41.6998H43.5338C43.9316 41.6998 44.3131 41.8579 44.5945 42.1392C44.8758 42.4205 45.0338 42.802 45.0338 43.1998C45.0338 43.5977 44.8758 43.9792 44.5945 44.2605C44.3131 44.5418 43.9316 44.6998 43.5338 44.6998H42.9338C41.3073 44.6997 39.7205 44.1973 38.3903 43.2613C37.0601 42.3252 36.0514 41.0018 35.5022 39.4708Z" fill="black"/>
<path d="M36.5726 6.89144C33.8714 4.19084 29.4128 4.47464 27.077 7.49684L18.5324 18.55L24.9164 24.9334L35.9684 16.3864C38.9894 14.05 39.2732 9.59204 36.5726 6.89144ZM23.0018 26.4136L17.0522 20.464L15.9398 21.904C15.8384 22.0352 15.7882 22.1988 15.7987 22.3642C15.8092 22.5296 15.8796 22.6856 15.9968 22.8028L16.0358 22.8412C15.9575 22.7635 15.8612 22.7063 15.7555 22.6746C15.6498 22.6429 15.538 22.6377 15.4298 22.6594L12.752 23.1952C11.742 23.3974 10.8045 23.8658 10.0364 24.5521C9.26829 25.2383 8.6976 26.1174 8.38339 27.0982L5.67559 35.5606C5.47819 36.1762 6.24139 36.373 6.69859 35.9164L11.8484 30.766C12.1484 30.466 12.2288 30.0196 12.3044 29.5954L12.3296 29.458C12.3368 29.42 12.3456 29.382 12.356 29.344C12.6428 28.273 13.9808 27.9142 14.765 28.6984C15.5492 29.4826 15.1898 30.8206 14.1194 31.1074C14.0815 31.1173 14.0433 31.1259 14.0048 31.1332L13.868 31.1584C13.4438 31.234 12.998 31.3144 12.6968 31.6144L7.54699 36.7648C7.08979 37.2214 7.28659 37.9846 7.90219 37.7878L16.3646 35.08C17.3456 34.7659 18.2248 34.1953 18.9111 33.4272C19.5975 32.6591 20.066 31.7215 20.2682 30.7114L20.8034 28.033C20.8252 27.9249 20.82 27.813 20.7883 27.7073C20.7566 27.6016 20.6993 27.5054 20.6216 27.427L20.6636 27.469C20.7808 27.5865 20.9368 27.6571 21.1024 27.6677C21.268 27.6783 21.4317 27.6282 21.563 27.5266L23.0018 26.4136ZM35.5022 39.4708L33.4838 33.8428L30.9434 40.9252C30.5468 42.0302 29.8188 42.9858 28.8587 43.6614C27.8986 44.337 26.7534 44.6996 25.5794 44.6998H25.1528C23.6942 44.6998 22.2806 44.194 21.1532 43.2688L19.0472 41.5408L16.9448 43.2664C15.8155 44.1935 14.3996 44.7001 12.9386 44.6998H5.13379C4.73596 44.6998 4.35443 44.5418 4.07313 44.2605C3.79182 43.9792 3.63379 43.5977 3.63379 43.1998C3.63379 42.802 3.79182 42.4205 4.07313 42.1392C4.35443 41.8579 4.73596 41.6998 5.13379 41.6998H12.9386C13.7056 41.7001 14.4489 41.4342 15.0416 40.9474L17.3096 39.0856C17.7995 38.6835 18.4137 38.4637 19.0475 38.4637C19.6813 38.4637 20.2955 38.6835 20.7854 39.0856L23.0564 40.9498C23.6472 41.4352 24.3882 41.7003 25.1528 41.6998H25.5788C26.1348 41.6997 26.6772 41.5278 27.1319 41.2078C27.5866 40.8878 27.9314 40.4352 28.1192 39.9118L31.7492 29.7934C32.333 28.1656 34.6346 28.1656 35.2184 29.7934L38.3264 38.4574C38.667 39.4066 39.2923 40.2274 40.117 40.8078C40.9416 41.3881 41.9254 41.6997 42.9338 41.6998H43.5338C43.9316 41.6998 44.3131 41.8579 44.5945 42.1392C44.8758 42.4205 45.0338 42.802 45.0338 43.1998C45.0338 43.5977 44.8758 43.9792 44.5945 44.2605C44.3131 44.5418 43.9316 44.6998 43.5338 44.6998H42.9338C41.3073 44.6997 39.7205 44.1973 38.3903 43.2613C37.0601 42.3252 36.0514 41.0018 35.5022 39.4708Z" fill="url(#paint0_linear_963_165)"/>
<defs>
<linearGradient id="paint0_linear_963_165" x1="24.3338" y1="11.9117" x2="24.3338" y2="44.7002" gradientUnits="userSpaceOnUse">
<stop stop-color="#1C92FF"/>
<stop offset="1" stop-color="#2464FD"/>
</linearGradient>
</defs>
</svg>
