<svg width="48" height="48" viewBox="0 0 48 48" fill="none" xmlns="http://www.w3.org/2000/svg">
<path d="M15.0001 9.5001C14.8031 9.5001 14.608 9.5389 14.426 9.61428C14.244 9.68967 14.0787 9.80016 13.9394 9.93944C13.8001 10.0787 13.6896 10.2441 13.6142 10.4261C13.5389 10.6081 13.5001 10.8031 13.5001 11.0001C13.5001 11.1971 13.5389 11.3921 13.6142 11.5741C13.6896 11.7561 13.8001 11.9215 13.9394 12.0608C14.0787 12.2001 14.244 12.3105 14.426 12.3859C14.608 12.4613 14.8031 12.5001 15.0001 12.5001C15.3979 12.5001 15.7794 12.3421 16.0607 12.0608C16.342 11.7795 16.5001 11.3979 16.5001 11.0001C16.5001 10.6023 16.342 10.2207 16.0607 9.93944C15.7794 9.65814 15.3979 9.5001 15.0001 9.5001ZM10.5001 11.0001C10.5003 10.1752 10.7273 9.36617 11.1563 8.66153C11.5852 7.95689 12.1996 7.38372 12.9323 7.00466C13.665 6.6256 14.4878 6.45524 15.3108 6.5122C16.1337 6.56916 16.9252 6.85124 17.5987 7.32762C18.2722 7.804 18.8018 8.45634 19.1295 9.21336C19.4573 9.97037 19.5707 10.8029 19.4573 11.62C19.3439 12.4371 19.0081 13.2074 18.4866 13.8465C17.965 14.4856 17.2778 14.9691 16.5001 15.2441V23.0561C16.6734 22.9281 16.8534 22.8094 17.0401 22.7001C18.9381 21.5561 21.3701 21.2221 23.4361 20.9401L23.7941 20.8901C26.1161 20.5661 27.9981 20.2461 29.3481 19.3361C30.3581 18.6521 31.2221 17.5161 31.4441 15.2241C30.4482 14.8575 29.614 14.1507 29.0888 13.2287C28.5635 12.3067 28.381 11.2287 28.5734 10.1851C28.7659 9.14154 29.3209 8.19956 30.1405 7.52555C30.9601 6.85153 31.9916 6.48884 33.0527 6.50154C34.1137 6.51424 35.1362 6.90151 35.9394 7.59495C36.7427 8.28839 37.275 9.24338 37.4424 10.2912C37.6099 11.3391 37.4016 12.4124 36.8544 13.3216C36.3072 14.2308 35.4564 14.9174 34.4521 15.2601C34.2001 18.4141 32.9761 20.5041 31.0281 21.8201C29.0021 23.1901 26.3841 23.5601 24.2081 23.8601L24.1581 23.8681C21.8181 24.1921 19.9441 24.4521 18.5861 25.2681C17.9561 25.6481 17.4621 26.1401 17.1121 26.8321C16.7521 27.5401 16.5001 28.5441 16.5001 30.0001V32.7561C17.5014 33.11 18.3455 33.8065 18.883 34.7225C19.4205 35.6385 19.6168 36.715 19.4373 37.7618C19.2578 38.8086 18.714 39.7582 17.902 40.4428C17.09 41.1274 16.0621 41.5029 15.0001 41.5029C13.938 41.5029 12.9101 41.1274 12.0981 40.4428C11.2862 39.7582 10.7423 38.8086 10.5628 37.7618C10.3833 36.715 10.5797 35.6385 11.1172 34.7225C11.6546 33.8065 12.4987 33.11 13.5001 32.7561V15.2441C12.6225 14.9338 11.8627 14.3591 11.3254 13.599C10.7881 12.8389 10.4998 11.9309 10.5001 11.0001ZM33.0001 9.5001C32.8031 9.5001 32.608 9.5389 32.426 9.61428C32.244 9.68967 32.0787 9.80016 31.9394 9.93944C31.8001 10.0787 31.6896 10.2441 31.6142 10.4261C31.5389 10.6081 31.5001 10.8031 31.5001 11.0001C31.5001 11.1971 31.5389 11.3921 31.6142 11.5741C31.6896 11.7561 31.8001 11.9215 31.9394 12.0608C32.0787 12.2001 32.244 12.3105 32.426 12.3859C32.608 12.4613 32.8031 12.5001 33.0001 12.5001C33.3979 12.5001 33.7794 12.3421 34.0607 12.0608C34.342 11.7795 34.5001 11.3979 34.5001 11.0001C34.5001 10.6023 34.342 10.2207 34.0607 9.93944C33.7794 9.65814 33.3979 9.5001 33.0001 9.5001ZM15.0001 35.5001C14.6022 35.5001 14.2207 35.6581 13.9394 35.9394C13.6581 36.2207 13.5001 36.6023 13.5001 37.0001C13.5001 37.3979 13.6581 37.7795 13.9394 38.0608C14.2207 38.3421 14.6022 38.5001 15.0001 38.5001C15.3979 38.5001 15.7794 38.3421 16.0607 38.0608C16.342 37.7795 16.5001 37.3979 16.5001 37.0001C16.5001 36.6023 16.342 36.2207 16.0607 35.9394C15.7794 35.6581 15.3979 35.5001 15.0001 35.5001Z" fill="black"/>
<path d="M15.0001 9.5001C14.8031 9.5001 14.608 9.5389 14.426 9.61428C14.244 9.68967 14.0787 9.80016 13.9394 9.93944C13.8001 10.0787 13.6896 10.2441 13.6142 10.4261C13.5389 10.6081 13.5001 10.8031 13.5001 11.0001C13.5001 11.1971 13.5389 11.3921 13.6142 11.5741C13.6896 11.7561 13.8001 11.9215 13.9394 12.0608C14.0787 12.2001 14.244 12.3105 14.426 12.3859C14.608 12.4613 14.8031 12.5001 15.0001 12.5001C15.3979 12.5001 15.7794 12.3421 16.0607 12.0608C16.342 11.7795 16.5001 11.3979 16.5001 11.0001C16.5001 10.6023 16.342 10.2207 16.0607 9.93944C15.7794 9.65814 15.3979 9.5001 15.0001 9.5001ZM10.5001 11.0001C10.5003 10.1752 10.7273 9.36617 11.1563 8.66153C11.5852 7.95689 12.1996 7.38372 12.9323 7.00466C13.665 6.6256 14.4878 6.45524 15.3108 6.5122C16.1337 6.56916 16.9252 6.85124 17.5987 7.32762C18.2722 7.804 18.8018 8.45634 19.1295 9.21336C19.4573 9.97037 19.5707 10.8029 19.4573 11.62C19.3439 12.4371 19.0081 13.2074 18.4866 13.8465C17.965 14.4856 17.2778 14.9691 16.5001 15.2441V23.0561C16.6734 22.9281 16.8534 22.8094 17.0401 22.7001C18.9381 21.5561 21.3701 21.2221 23.4361 20.9401L23.7941 20.8901C26.1161 20.5661 27.9981 20.2461 29.3481 19.3361C30.3581 18.6521 31.2221 17.5161 31.4441 15.2241C30.4482 14.8575 29.614 14.1507 29.0888 13.2287C28.5635 12.3067 28.381 11.2287 28.5734 10.1851C28.7659 9.14154 29.3209 8.19956 30.1405 7.52555C30.9601 6.85153 31.9916 6.48884 33.0527 6.50154C34.1137 6.51424 35.1362 6.90151 35.9394 7.59495C36.7427 8.28839 37.275 9.24338 37.4424 10.2912C37.6099 11.3391 37.4016 12.4124 36.8544 13.3216C36.3072 14.2308 35.4564 14.9174 34.4521 15.2601C34.2001 18.4141 32.9761 20.5041 31.0281 21.8201C29.0021 23.1901 26.3841 23.5601 24.2081 23.8601L24.1581 23.8681C21.8181 24.1921 19.9441 24.4521 18.5861 25.2681C17.9561 25.6481 17.4621 26.1401 17.1121 26.8321C16.7521 27.5401 16.5001 28.5441 16.5001 30.0001V32.7561C17.5014 33.11 18.3455 33.8065 18.883 34.7225C19.4205 35.6385 19.6168 36.715 19.4373 37.7618C19.2578 38.8086 18.714 39.7582 17.902 40.4428C17.09 41.1274 16.0621 41.5029 15.0001 41.5029C13.938 41.5029 12.9101 41.1274 12.0981 40.4428C11.2862 39.7582 10.7423 38.8086 10.5628 37.7618C10.3833 36.715 10.5797 35.6385 11.1172 34.7225C11.6546 33.8065 12.4987 33.11 13.5001 32.7561V15.2441C12.6225 14.9338 11.8627 14.3591 11.3254 13.599C10.7881 12.8389 10.4998 11.9309 10.5001 11.0001ZM33.0001 9.5001C32.8031 9.5001 32.608 9.5389 32.426 9.61428C32.244 9.68967 32.0787 9.80016 31.9394 9.93944C31.8001 10.0787 31.6896 10.2441 31.6142 10.4261C31.5389 10.6081 31.5001 10.8031 31.5001 11.0001C31.5001 11.1971 31.5389 11.3921 31.6142 11.5741C31.6896 11.7561 31.8001 11.9215 31.9394 12.0608C32.0787 12.2001 32.244 12.3105 32.426 12.3859C32.608 12.4613 32.8031 12.5001 33.0001 12.5001C33.3979 12.5001 33.7794 12.3421 34.0607 12.0608C34.342 11.7795 34.5001 11.3979 34.5001 11.0001C34.5001 10.6023 34.342 10.2207 34.0607 9.93944C33.7794 9.65814 33.3979 9.5001 33.0001 9.5001ZM15.0001 35.5001C14.6022 35.5001 14.2207 35.6581 13.9394 35.9394C13.6581 36.2207 13.5001 36.6023 13.5001 37.0001C13.5001 37.3979 13.6581 37.7795 13.9394 38.0608C14.2207 38.3421 14.6022 38.5001 15.0001 38.5001C15.3979 38.5001 15.7794 38.3421 16.0607 38.0608C16.342 37.7795 16.5001 37.3979 16.5001 37.0001C16.5001 36.6023 16.342 36.2207 16.0607 35.9394C15.7794 35.6581 15.3979 35.5001 15.0001 35.5001Z" fill="url(#paint0_linear_963_75)"/>
<defs>
<linearGradient id="paint0_linear_963_75" x1="23.9984" y1="12.5694" x2="23.9984" y2="41.5032" gradientUnits="userSpaceOnUse">
<stop stop-color="#1C92FF"/>
<stop offset="1" stop-color="#2464FD"/>
</linearGradient>
</defs>
</svg>
