<svg preserveAspectRatio="none" width="100%" height="100%" overflow="visible" style="display: block;" viewBox="0 0 27.0008 35.0016" fill="none" xmlns="http://www.w3.org/2000/svg">
<g id="Vector">
<path d="M4.50201 2.99888C4.30503 2.99888 4.10997 3.03768 3.92798 3.11306C3.746 3.18845 3.58064 3.29893 3.44135 3.43822C3.30206 3.57751 3.19157 3.74287 3.11619 3.92486C3.04081 4.10685 3.00201 4.3019 3.00201 4.49888C3.00201 4.69587 3.04081 4.89092 3.11619 5.07291C3.19157 5.2549 3.30206 5.42026 3.44135 5.55954C3.58064 5.69883 3.746 5.80932 3.92798 5.8847C4.10997 5.96008 4.30503 5.99888 4.50201 5.99888C4.89983 5.99888 5.28136 5.84085 5.56267 5.55954C5.84397 5.27824 6.00201 4.89671 6.00201 4.49888C6.00201 4.10106 5.84397 3.71953 5.56267 3.43822C5.28136 3.15692 4.89983 2.99888 4.50201 2.99888ZM0.00200924 4.49888C0.00225844 3.67395 0.229265 2.86495 0.658219 2.16031C1.08717 1.45567 1.70157 0.8825 2.43426 0.503442C3.16695 0.124383 3.98974 -0.0459761 4.81271 0.0109813C5.63568 0.0679386 6.42715 0.350021 7.10064 0.8264C7.77413 1.30278 8.30371 1.95512 8.6315 2.71214C8.95929 3.46915 9.07269 4.30171 8.95929 5.11881C8.8459 5.93592 8.51007 6.70613 7.98852 7.34528C7.46697 7.98442 6.77977 8.4679 6.00201 8.74288V16.5549C6.17534 16.4269 6.35534 16.3082 6.54201 16.1989C8.44001 15.0549 10.872 14.7209 12.938 14.4389L13.296 14.3889C15.618 14.0649 17.5 13.7449 18.85 12.8349C19.86 12.1509 20.724 11.0149 20.946 8.72288C19.9502 8.35625 19.116 7.6495 18.5907 6.72747C18.0655 5.80543 17.8829 4.72744 18.0754 3.68388C18.2678 2.64032 18.8229 1.69834 19.6425 1.02433C20.4621 0.350312 21.4935 -0.0123766 22.5546 0.000322512C23.6157 0.0130216 24.6382 0.400291 25.4414 1.09373C26.2446 1.78717 26.777 2.74216 26.9444 3.79002C27.1118 4.83789 26.9036 5.91121 26.3564 6.82041C25.8092 7.72961 24.9583 8.41619 23.954 8.75888C23.702 11.9129 22.478 14.0029 20.53 15.3189C18.504 16.6889 15.886 17.0589 13.71 17.3589L13.66 17.3669C11.32 17.6909 9.44601 17.9509 8.08801 18.7669C7.45801 19.1469 6.96401 19.6389 6.61401 20.3309C6.25401 21.0389 6.00201 22.0429 6.00201 23.4989V26.2549C7.00339 26.6087 7.84742 27.3052 8.38491 28.2213C8.92241 29.1373 9.11875 30.2138 8.93923 31.2606C8.75972 32.3074 8.21591 33.257 7.40392 33.9416C6.59194 34.6262 5.56407 35.0016 4.50201 35.0016C3.43995 35.0016 2.41208 34.6262 1.60009 33.9416C0.788111 33.257 0.2443 32.3074 0.0647849 31.2606C-0.11473 30.2138 0.081612 29.1373 0.619105 28.2213C1.1566 27.3052 2.00063 26.6087 3.00201 26.2549V8.74288C2.12444 8.43261 1.36467 7.85785 0.827382 7.09776C0.290095 6.33768 0.00172809 5.42969 0.00200924 4.49888ZM22.502 2.99888C22.305 2.99888 22.11 3.03768 21.928 3.11306C21.746 3.18845 21.5806 3.29893 21.4413 3.43822C21.3021 3.57751 21.1916 3.74287 21.1162 3.92486C21.0408 4.10685 21.002 4.3019 21.002 4.49888C21.002 4.69587 21.0408 4.89092 21.1162 5.07291C21.1916 5.2549 21.3021 5.42026 21.4413 5.55954C21.5806 5.69883 21.746 5.80932 21.928 5.8847C22.11 5.96008 22.305 5.99888 22.502 5.99888C22.8998 5.99888 23.2814 5.84085 23.5627 5.55954C23.844 5.27824 24.002 4.89671 24.002 4.49888C24.002 4.10106 23.844 3.71953 23.5627 3.43822C23.2814 3.15692 22.8998 2.99888 22.502 2.99888ZM4.50201 28.9989C4.10418 28.9989 3.72265 29.1569 3.44135 29.4382C3.16004 29.7195 3.00201 30.1011 3.00201 30.4989C3.00201 30.8967 3.16004 31.2782 3.44135 31.5595C3.72265 31.8408 4.10418 31.9989 4.50201 31.9989C4.89983 31.9989 5.28136 31.8408 5.56267 31.5595C5.84397 31.2782 6.00201 30.8967 6.00201 30.4989C6.00201 30.1011 5.84397 29.7195 5.56267 29.4382C5.28136 29.1569 4.89983 28.9989 4.50201 28.9989Z" fill="var(--fill-0, black)"/>
<path d="M4.50201 2.99888C4.30503 2.99888 4.10997 3.03768 3.92798 3.11306C3.746 3.18845 3.58064 3.29893 3.44135 3.43822C3.30206 3.57751 3.19157 3.74287 3.11619 3.92486C3.04081 4.10685 3.00201 4.3019 3.00201 4.49888C3.00201 4.69587 3.04081 4.89092 3.11619 5.07291C3.19157 5.2549 3.30206 5.42026 3.44135 5.55954C3.58064 5.69883 3.746 5.80932 3.92798 5.8847C4.10997 5.96008 4.30503 5.99888 4.50201 5.99888C4.89983 5.99888 5.28136 5.84085 5.56267 5.55954C5.84397 5.27824 6.00201 4.89671 6.00201 4.49888C6.00201 4.10106 5.84397 3.71953 5.56267 3.43822C5.28136 3.15692 4.89983 2.99888 4.50201 2.99888ZM0.00200924 4.49888C0.00225844 3.67395 0.229265 2.86495 0.658219 2.16031C1.08717 1.45567 1.70157 0.8825 2.43426 0.503442C3.16695 0.124383 3.98974 -0.0459761 4.81271 0.0109813C5.63568 0.0679386 6.42715 0.350021 7.10064 0.8264C7.77413 1.30278 8.30371 1.95512 8.6315 2.71214C8.95929 3.46915 9.07269 4.30171 8.95929 5.11881C8.8459 5.93592 8.51007 6.70613 7.98852 7.34528C7.46697 7.98442 6.77977 8.4679 6.00201 8.74288V16.5549C6.17534 16.4269 6.35534 16.3082 6.54201 16.1989C8.44001 15.0549 10.872 14.7209 12.938 14.4389L13.296 14.3889C15.618 14.0649 17.5 13.7449 18.85 12.8349C19.86 12.1509 20.724 11.0149 20.946 8.72288C19.9502 8.35625 19.116 7.6495 18.5907 6.72747C18.0655 5.80543 17.8829 4.72744 18.0754 3.68388C18.2678 2.64032 18.8229 1.69834 19.6425 1.02433C20.4621 0.350312 21.4935 -0.0123766 22.5546 0.000322512C23.6157 0.0130216 24.6382 0.400291 25.4414 1.09373C26.2446 1.78717 26.777 2.74216 26.9444 3.79002C27.1118 4.83789 26.9036 5.91121 26.3564 6.82041C25.8092 7.72961 24.9583 8.41619 23.954 8.75888C23.702 11.9129 22.478 14.0029 20.53 15.3189C18.504 16.6889 15.886 17.0589 13.71 17.3589L13.66 17.3669C11.32 17.6909 9.44601 17.9509 8.08801 18.7669C7.45801 19.1469 6.96401 19.6389 6.61401 20.3309C6.25401 21.0389 6.00201 22.0429 6.00201 23.4989V26.2549C7.00339 26.6087 7.84742 27.3052 8.38491 28.2213C8.92241 29.1373 9.11875 30.2138 8.93923 31.2606C8.75972 32.3074 8.21591 33.257 7.40392 33.9416C6.59194 34.6262 5.56407 35.0016 4.50201 35.0016C3.43995 35.0016 2.41208 34.6262 1.60009 33.9416C0.788111 33.257 0.2443 32.3074 0.0647849 31.2606C-0.11473 30.2138 0.081612 29.1373 0.619105 28.2213C1.1566 27.3052 2.00063 26.6087 3.00201 26.2549V8.74288C2.12444 8.43261 1.36467 7.85785 0.827382 7.09776C0.290095 6.33768 0.00172809 5.42969 0.00200924 4.49888ZM22.502 2.99888C22.305 2.99888 22.11 3.03768 21.928 3.11306C21.746 3.18845 21.5806 3.29893 21.4413 3.43822C21.3021 3.57751 21.1916 3.74287 21.1162 3.92486C21.0408 4.10685 21.002 4.3019 21.002 4.49888C21.002 4.69587 21.0408 4.89092 21.1162 5.07291C21.1916 5.2549 21.3021 5.42026 21.4413 5.55954C21.5806 5.69883 21.746 5.80932 21.928 5.8847C22.11 5.96008 22.305 5.99888 22.502 5.99888C22.8998 5.99888 23.2814 5.84085 23.5627 5.55954C23.844 5.27824 24.002 4.89671 24.002 4.49888C24.002 4.10106 23.844 3.71953 23.5627 3.43822C23.2814 3.15692 22.8998 2.99888 22.502 2.99888ZM4.50201 28.9989C4.10418 28.9989 3.72265 29.1569 3.44135 29.4382C3.16004 29.7195 3.00201 30.1011 3.00201 30.4989C3.00201 30.8967 3.16004 31.2782 3.44135 31.5595C3.72265 31.8408 4.10418 31.9989 4.50201 31.9989C4.89983 31.9989 5.28136 31.8408 5.56267 31.5595C5.84397 31.2782 6.00201 30.8967 6.00201 30.4989C6.00201 30.1011 5.84397 29.7195 5.56267 29.4382C5.28136 29.1569 4.89983 28.9989 4.50201 28.9989Z" fill="url(#paint0_linear_0_55)"/>
</g>
<defs>
<linearGradient id="paint0_linear_0_55" x1="13.5004" y1="6.06817" x2="13.5004" y2="35.0019" gradientUnits="userSpaceOnUse">
<stop stop-color="#1C92FF"/>
<stop offset="1" stop-color="#2464FD"/>
</linearGradient>
</defs>
</svg>
