<svg preserveAspectRatio="none" width="100%" height="100%" overflow="visible" style="display: block;" viewBox="0 0 41.0034 41.0081" fill="none" xmlns="http://www.w3.org/2000/svg">
<g id="Vector">
<path d="M10.3003 14.1131L8.89781 12.7106C7.96031 11.7731 7.96031 10.2506 8.89781 9.31312L17.5003 0.703125C18.4378 -0.234375 19.9603 -0.234375 20.8978 0.703125L22.3003 2.11313C23.2378 3.05063 23.2378 4.57312 22.3003 5.51062L13.6978 14.1131C12.7603 15.0506 11.2378 15.0506 10.3003 14.1131ZM18.2803 18.4856L15.9253 16.1306L24.3253 7.73062L33.2803 16.6856L24.8803 25.0856L22.5253 22.7306L5.12532 40.1306C3.95532 41.3006 2.05781 41.3006 0.880315 40.1306C-0.297185 38.9606 -0.289685 37.0631 0.880315 35.8856L18.2803 18.4856ZM26.8978 30.7031C25.9603 29.7656 25.9603 28.2431 26.8978 27.3056L35.5003 18.7031C36.4378 17.7656 37.9603 17.7656 38.8978 18.7031L40.3003 20.1056C41.2378 21.0431 41.2378 22.5656 40.3003 23.5031L31.6978 32.1131C30.7603 33.0506 29.2378 33.0506 28.3003 32.1131L26.8978 30.7106V30.7031Z" fill="var(--fill-0, black)"/>
<path d="M10.3003 14.1131L8.89781 12.7106C7.96031 11.7731 7.96031 10.2506 8.89781 9.31312L17.5003 0.703125C18.4378 -0.234375 19.9603 -0.234375 20.8978 0.703125L22.3003 2.11313C23.2378 3.05063 23.2378 4.57312 22.3003 5.51062L13.6978 14.1131C12.7603 15.0506 11.2378 15.0506 10.3003 14.1131ZM18.2803 18.4856L15.9253 16.1306L24.3253 7.73062L33.2803 16.6856L24.8803 25.0856L22.5253 22.7306L5.12532 40.1306C3.95532 41.3006 2.05781 41.3006 0.880315 40.1306C-0.297185 38.9606 -0.289685 37.0631 0.880315 35.8856L18.2803 18.4856ZM26.8978 30.7031C25.9603 29.7656 25.9603 28.2431 26.8978 27.3056L35.5003 18.7031C36.4378 17.7656 37.9603 17.7656 38.8978 18.7031L40.3003 20.1056C41.2378 21.0431 41.2378 22.5656 40.3003 23.5031L31.6978 32.1131C30.7603 33.0506 29.2378 33.0506 28.3003 32.1131L26.8978 30.7106V30.7031Z" fill="url(#paint0_linear_0_23)"/>
</g>
<defs>
<linearGradient id="paint0_linear_0_23" x1="20.5017" y1="7.1095" x2="20.5017" y2="41.0085" gradientUnits="userSpaceOnUse">
<stop stop-color="#1C92FF"/>
<stop offset="1" stop-color="#2464FD"/>
</linearGradient>
</defs>
</svg>
