<svg width="48" height="48" viewBox="0 0 48 48" fill="none" xmlns="http://www.w3.org/2000/svg">
<path d="M15.1197 16.3045L13.7172 14.902C12.7797 13.9645 12.7797 12.442 13.7172 11.5045L22.3197 2.89453C23.2572 1.95703 24.7796 1.95703 25.7171 2.89453L27.1197 4.30453C28.0572 5.24203 28.0572 6.76453 27.1197 7.70203L18.5172 16.3045C17.5797 17.242 16.0572 17.242 15.1197 16.3045ZM23.0997 20.677L20.7447 18.322L29.1447 9.92203L38.0997 18.877L29.6997 27.277L27.3447 24.922L9.94465 42.322C8.77465 43.492 6.87715 43.492 5.69965 42.322C4.52215 41.152 4.52965 39.2545 5.69965 38.077L23.0997 20.677ZM31.7171 32.8945C30.7796 31.957 30.7796 30.4345 31.7171 29.497L40.3196 20.8945C41.2571 19.957 42.7797 19.957 43.7172 20.8945L45.1197 22.297C46.0572 23.2345 46.0572 24.757 45.1197 25.6945L36.5172 34.3045C35.5797 35.242 34.0572 35.242 33.1197 34.3045L31.7171 32.902V32.8945Z" fill="black"/>
<path d="M15.1197 16.3045L13.7172 14.902C12.7797 13.9645 12.7797 12.442 13.7172 11.5045L22.3197 2.89453C23.2572 1.95703 24.7796 1.95703 25.7171 2.89453L27.1197 4.30453C28.0572 5.24203 28.0572 6.76453 27.1197 7.70203L18.5172 16.3045C17.5797 17.242 16.0572 17.242 15.1197 16.3045ZM23.0997 20.677L20.7447 18.322L29.1447 9.92203L38.0997 18.877L29.6997 27.277L27.3447 24.922L9.94465 42.322C8.77465 43.492 6.87715 43.492 5.69965 42.322C4.52215 41.152 4.52965 39.2545 5.69965 38.077L23.0997 20.677ZM31.7171 32.8945C30.7796 31.957 30.7796 30.4345 31.7171 29.497L40.3196 20.8945C41.2571 19.957 42.7797 19.957 43.7172 20.8945L45.1197 22.297C46.0572 23.2345 46.0572 24.757 45.1197 25.6945L36.5172 34.3045C35.5797 35.242 34.0572 35.242 33.1197 34.3045L31.7171 32.902V32.8945Z" fill="url(#paint0_linear_963_31)"/>
<defs>
<linearGradient id="paint0_linear_963_31" x1="25.3211" y1="9.30091" x2="25.3211" y2="43.1999" gradientUnits="userSpaceOnUse">
<stop stop-color="#1C92FF"/>
<stop offset="1" stop-color="#2464FD"/>
</linearGradient>
</defs>
</svg>
